<?xml version="1.0" encoding="UTF-8" standalone="no"?>
<svg
   xmlns:sketch="http://www.bohemiancoding.com/sketch/ns"
   xmlns:osb="http://www.openswatchbook.org/uri/2009/osb"
   xmlns:dc="http://purl.org/dc/elements/1.1/"
   xmlns:cc="http://creativecommons.org/ns#"
   xmlns:rdf="http://www.w3.org/1999/02/22-rdf-syntax-ns#"
   xmlns:svg="http://www.w3.org/2000/svg"
   xmlns="http://www.w3.org/2000/svg"
   id="svg138"
   y="0px"
   x="0px"
   version="1.1"
   viewBox="0 0 24 30">
  <metadata
     id="metadata144">
    <rdf:RDF>
      <cc:Work
         rdf:about="">
        <dc:format>image/svg+xml</dc:format>
        <dc:type
           rdf:resource="http://purl.org/dc/dcmitype/StillImage" />
        <dc:title>BOCCA_ANTINCENDIO</dc:title>
      </cc:Work>
    </rdf:RDF>
  </metadata>
  <defs
     id="defs142">
    <linearGradient
       osb:paint="solid"
       id="linearGradient986">
      <stop
         id="stop984"
         offset="0"
         style="stop-color:#ffff00;stop-opacity:1;" />
    </linearGradient>
    <clipPath
       id="clipPath153"
       clipPathUnits="userSpaceOnUse">
      <g
         id="use155">
        <path
           id="path1000"
           sketch:type="MSShapeGroup"
           fill="#000000"
           d="M 12,22 C 17.522847,22 22,17.522847 22,12 22,6.4771525 17.522847,2 12,2 6.4771525,2 2,6.4771525 2,12 2,17.522847 6.4771525,22 12,22 Z M 10.904712,14.793773 7.2561239,18.442361 C 8.5834355,19.42137 10.224145,20 12,20 c 4.418278,0 8,-3.581722 8,-8 0,-1.775855 -0.57863,-3.4165645 -1.557639,-4.7438761 L 14.793773,10.904712 C 14.926901,11.244021 15,11.613474 15,12 c 0,1.656854 -1.343146,3 -3,3 -0.386526,0 -0.755979,-0.0731 -1.095288,-0.206227 z M 9.3899442,13.480114 5.8062867,17.063771 C 4.6773494,15.684558 4,13.921381 4,12 4,7.581722 7.581722,4 12,4 c 1.921381,0 3.684558,0.6773494 5.063771,1.8062867 L 13.480114,9.3899442 C 13.043377,9.1417455 12.538242,9 12,9 c -1.656854,0 -3,1.343146 -3,3 0,0.538242 0.1417455,1.043377 0.3899442,1.480114 z" />
      </g>
    </clipPath>
  </defs>
  <title
     id="title126">BOCCA_ANTINCENDIO</title>
  <desc
     id="desc128">Created with Sketch.</desc>
  <g
     id="g132"
     sketch:type="MSPage"
     fill-rule="evenodd"
     fill="none"
     stroke-width="1"
     stroke="none">
    <circle
       r="9.3000002"
       cy="12"
       cx="12"
       id="path992"
       style="fill:none;fill-opacity:0.0248227;stroke:#ff0000;stroke-opacity:1" />
    <path
       id="path1010"
       d="M 5.5235294,18.476471 12,12 l 6.441176,6.441176"
       style="fill:none;stroke:#ff0000;stroke-width:1px;stroke-linecap:butt;stroke-linejoin:miter;stroke-opacity:1" />
    <path
       id="path1012"
       d="M 5.6117647,5.6117647 12,12 18.370588,5.6294118"
       style="fill:none;stroke:#ff0000;stroke-width:1px;stroke-linecap:butt;stroke-linejoin:miter;stroke-opacity:1" />
    <path
       id="path1030"
       d="M 5.2593624,17.639103 C 4.8281002,17.122297 4.4947408,16.619553 4.1893821,16.02545 3.685667,15.045427 3.3838133,14.048437 3.2621651,12.96295 2.99631,10.590683 3.7243338,8.1908722 5.2691475,6.3472611 L 5.4300971,6.1551809 8.3535128,9.0785967 11.276929,12.002013 8.3546821,14.92426 5.4324352,17.846506 Z"
       style="fill:#ff0000;fill-opacity:1;stroke:#ff0000;stroke-width:0.015625;stroke-opacity:1" />
    <path
       id="path1032"
       d="m 15.640205,14.912153 -2.917953,-2.917984 2.920049,-2.9200185 2.92005,-2.9200185 0.05437,0.060659 c 0.192416,0.2146888 0.498263,0.6120812 0.678027,0.8809716 0.855967,1.2803533 1.355774,2.7266095 1.473873,4.2648424 0.02076,0.270451 0.02079,0.996323 3.1e-5,1.267191 -0.13477,1.75949 -0.760185,3.386656 -1.834404,4.772654 -0.138447,0.17863 -0.352118,0.429688 -0.365699,0.429688 -0.0057,0 -1.323466,-1.313093 -2.92834,-2.917985 z"
       style="fill:#ff0000;fill-opacity:1;stroke:#ff0000;stroke-width:0.015625;stroke-opacity:1" />
  </g>
</svg>
