<?xml version="1.0" encoding="UTF-8" standalone="no"?>
<svg
   xmlns:dc="http://purl.org/dc/elements/1.1/"
   xmlns:cc="http://creativecommons.org/ns#"
   xmlns:rdf="http://www.w3.org/1999/02/22-rdf-syntax-ns#"
   xmlns:svg="http://www.w3.org/2000/svg"
   xmlns="http://www.w3.org/2000/svg"
   id="svg2915"
   xml:space="preserve"
   enable-background="new -2 -2 64 64"
   viewBox="-2 -2 64 80"
   y="0px"
   x="0px"
   version="1.1"><title
     id="title2923">FITTING</title><metadata
     id="metadata2921"><rdf:RDF><cc:Work
         rdf:about=""><dc:format>image/svg+xml</dc:format><dc:type
           rdf:resource="http://purl.org/dc/dcmitype/StillImage" /><dc:title>FITTING</dc:title></cc:Work></rdf:RDF></metadata><defs
     id="defs2919" /><path
     id="path2909"
     d="M1.628,11.735C-0.393,11.75-2.01,13.525-2,15.718l0.153,28.57  c0.012,2.19,1.649,3.943,3.668,3.932c2.024-0.014,3.641-1.79,3.629-3.983l-0.014-2.344h49.906l-0.016,2.805  c-0.008,1.963,1.441,3.554,3.25,3.567c1.811,0.015,3.273-1.556,3.283-3.516L62,15.349c0.01-1.964-1.439-3.555-3.248-3.567  c-1.811-0.014-3.273,1.555-3.283,3.518l-0.02,4.255H5.318l-0.019-3.884C5.285,13.477,3.65,11.722,1.628,11.735L1.628,11.735z" /></svg>
