<?xml version="1.0" encoding="UTF-8" standalone="no"?>
<svg
   xmlns:dc="http://purl.org/dc/elements/1.1/"
   xmlns:cc="http://creativecommons.org/ns#"
   xmlns:rdf="http://www.w3.org/1999/02/22-rdf-syntax-ns#"
   xmlns:svg="http://www.w3.org/2000/svg"
   xmlns="http://www.w3.org/2000/svg"
   id="svg1058"
   viewBox="0 0 100 125"
   y="0px"
   x="0px"
   version="1.1">
  <title
     id="title1088">IDRANTE</title>
  <metadata
     id="metadata1064">
    <rdf:RDF>
      <cc:Work
         rdf:about="">
        <dc:format>image/svg+xml</dc:format>
        <dc:type
           rdf:resource="http://purl.org/dc/dcmitype/StillImage" />
        <dc:title>IDRANTE</dc:title>
      </cc:Work>
    </rdf:RDF>
  </metadata>
  <defs
     id="defs1062" />
  <g
     id="g1052"
     transform="translate(0,-952.36218)">
    <path
       id="path1050"
       transform="translate(0,952.36218)"
       d="M 50 6 C 41.213567 6 34.133427 13.07617 33.1875 22 L 31 22 A 2.0001996 2.0001996 0 0 0 29 24 L 29 32 A 2.0001996 2.0001996 0 0 0 31 34 L 33 34 L 33 38 L 25 38 A 2.0001996 2.0001996 0 0 0 24.8125 38 A 2.0001996 2.0001996 0 0 0 23 40 L 23 43 L 20 43 A 2.0001996 2.0001996 0 0 0 19.8125 43 A 2.0021961 2.0021961 0 1 0 20 47 L 23 47 L 23 50 A 2.0001996 2.0001996 0 0 0 25 52 L 33 52 L 33 80 L 32.8125 80 L 30 80 A 2.0001995 2.0001995 0 0 0 28 82 L 28 92 A 2.0001995 2.0001995 0 0 0 30 94 L 35 94 L 65 94 L 70 94 A 2.0001995 2.0001995 0 0 0 72 92 L 72 82 A 2.0001995 2.0001995 0 0 0 70 80 L 67 80 L 67 52 L 75 52 A 2.0001996 2.0001996 0 0 0 77 50 L 77 47 L 80 47 A 2.0001996 2.0001996 0 1 0 80 43 L 77 43 L 77 40 A 2.0001996 2.0001996 0 0 0 75.1875 38 A 2.0001996 2.0001996 0 0 0 75 38 L 67 38 L 67 34 L 69 34 A 2.0001996 2.0001996 0 0 0 71 32 L 71 24 A 2.0001996 2.0001996 0 0 0 69 22 L 66.8125 22 C 65.866573 13.07617 58.786433 6 50 6 z M 50 10 C 57.131333 10 63 16.17676 63 24 A 2.0001996 2.0001996 0 0 0 65 26 L 67 26 L 67 30 L 65 30 L 34.8125 30 L 33 30 L 33 26 L 35 26 A 2.0001996 2.0001996 0 0 0 37 24 C 37 16.17676 42.868667 10 50 10 z M 41.78125 17.96875 A 2.0001996 2.0001996 0 0 0 40 20 L 40 24 A 2.0001996 2.0001996 0 1 0 44 24 L 44 20 A 2.0001996 2.0001996 0 0 0 41.78125 17.96875 z M 49.78125 17.96875 A 2.0001996 2.0001996 0 0 0 48 20 L 48 24 A 2.0001996 2.0001996 0 1 0 52 24 L 52 20 A 2.0001996 2.0001996 0 0 0 49.78125 17.96875 z M 57.78125 17.96875 A 2.0001996 2.0001996 0 0 0 56 20 L 56 24 A 2.0001996 2.0001996 0 1 0 60 24 L 60 20 A 2.0001996 2.0001996 0 0 0 57.78125 17.96875 z M 37 34 L 63 34 L 63 39.8125 L 63 50 A 2.0001996 2.0001996 0 0 0 63 50.15625 L 63 80 L 60 80 L 60 69 A 2.0001995 2.0001995 0 0 0 57.78125 66.96875 A 2.0001995 2.0001995 0 0 0 56 69 L 56 80 L 52 80 L 52 69 A 2.0001996 2.0001996 0 0 0 49.78125 66.96875 A 2.0001996 2.0001996 0 0 0 48 69 L 48 80 L 44 80 L 44 69 A 2.0001995 2.0001995 0 0 0 41.78125 66.96875 A 2.0001995 2.0001995 0 0 0 40 69 L 40 80 L 37 80 L 37 50.15625 A 2.0001996 2.0001996 0 0 0 37 50 L 37 40 A 2.0001996 2.0001996 0 0 0 37 39.8125 L 37 34 z M 50 41 C 45.053127 41 41 45.05311 41 50 C 41 54.9469 45.053127 59 50 59 C 54.946874 59 59 54.9469 59 50 C 59 45.05311 54.946874 41 50 41 z M 27 42 L 33 42 L 33 48 L 27 48 L 27 42 z M 67 42 L 73 42 L 73 48 L 67 48 L 67 42 z M 50 45 C 52.785113 45 55 47.21487 55 50 C 55 52.7851 52.785113 55 50 55 C 47.214887 55 45 52.7851 45 50 C 45 47.21487 47.214887 45 50 45 z M 32 84 L 32.71875 84 L 35 84 L 35.1875 84 L 64.84375 84 L 67 84 L 67.1875 84 L 68 84 L 68 90 L 65 90 L 35 90 L 32 90 L 32 84 z "
       style="font-size:medium;font-style:normal;font-variant:normal;font-weight:normal;font-stretch:normal;text-indent:0;text-align:start;text-decoration:none;line-height:normal;letter-spacing:normal;word-spacing:normal;text-transform:none;direction:ltr;block-progression:tb;writing-mode:lr-tb;text-anchor:start;baseline-shift:baseline;opacity:1;color:#000000;fill:#000000;fill-opacity:1;stroke:none;stroke-width:3.99999905000000000;marker:none;visibility:visible;display:inline;overflow:visible;enable-background:accumulate;font-family:Sans;-inkscape-font-specification:Sans" />
  </g>
  <path
     id="path1076"
     d="M 32.058824,87.000179 V 84.132532 H 50 67.941176 v 2.867647 2.867647 H 50 32.058824 Z"
     style="fill:#ff0000;stroke:#ff0000;stroke-width:0.147059" />
  <path
     id="path1078"
     d="M 37.058824,57.000179 V 34.132532 H 50 62.941176 V 57.000179 79.867826 H 61.470588 60 v -5.884513 -5.884512 l -0.503406,-0.549312 c -0.482357,-0.526341 -0.543351,-0.54931 -1.458741,-0.54931 -0.814731,0 -1.013977,0.05411 -1.353781,0.367647 -0.786322,0.725538 -0.801719,0.858184 -0.801719,6.907041 v 5.592959 h -1.911765 -1.911764 v -5.666488 c 0,-6.271821 -0.02126,-6.434789 -0.910269,-6.976802 -0.624438,-0.380709 -1.657295,-0.390101 -2.263266,-0.02058 -0.925313,0.564255 -0.944113,0.703393 -0.944113,6.987566 v 5.676305 h -1.911764 -1.911765 v -5.592959 c 0,-6.024116 -0.01817,-6.184422 -0.780714,-6.887309 -0.45992,-0.423938 -1.522414,-0.578138 -2.161003,-0.313626 -0.245625,0.101741 -0.610692,0.380007 -0.811261,0.618369 L 40,68.125686 v 5.871071 5.871069 h -1.470588 -1.470588 z m 15.746825,1.600717 c 2.59877,-0.810481 4.821404,-2.968591 5.735307,-5.568808 1.734231,-4.934199 -1.031457,-10.264325 -6.114485,-11.784039 -1.203625,-0.359858 -3.649317,-0.359858 -4.852942,0 -3.42827,1.024977 -5.889194,3.772989 -6.501381,7.259822 -0.495729,2.823524 0.410008,5.717312 2.437704,7.788355 2.463615,2.516282 5.891909,3.366245 9.295797,2.30467 z"
     style="fill:#ff0000;stroke:#ff0000;stroke-width:0.147059" />
  <path
     id="path1080"
     d="m 48.382353,54.632411 c -1.391235,-0.501897 -2.539282,-1.652384 -3.026296,-3.03273 -0.311265,-0.882217 -0.266275,-2.450088 0.09826,-3.4244 0.429468,-1.147856 1.552846,-2.272959 2.707889,-2.712048 2.572078,-0.977773 5.465292,0.263117 6.396172,2.743297 0.437514,1.165686 0.376285,2.882478 -0.140408,3.936872 -0.460518,0.939761 -1.354624,1.829187 -2.285618,2.273658 -0.962459,0.459492 -2.783387,0.564063 -3.749999,0.215351 z"
     style="fill:#ff0000;stroke:#ff0000;stroke-width:0.147059" />
  <path
     id="path1082"
     d="M 27.058824,45.014885 V 42.073708 H 30 32.941176 v 2.941177 2.941176 H 30 27.058824 Z"
     style="fill:#ff0000;stroke:#ff0000;stroke-width:0.147059" />
  <path
     id="path1084"
     d="M 67.058824,45.014885 V 42.073708 H 70 72.941176 v 2.941177 2.941176 H 70 67.058824 Z"
     style="fill:#ff0000;stroke:#ff0000;stroke-width:0.147059" />
  <path
     id="path1086"
     d="m 33.088235,27.956061 v -1.911765 h 1.191011 c 2.169045,0 2.617511,-0.445589 2.808164,-2.79015 0.303436,-3.731504 1.530913,-6.620348 3.862004,-9.089152 2.559268,-2.71046 5.525134,-4.031616 9.050586,-4.031616 2.12381,0 3.494522,0.334846 5.514706,1.347165 4.274809,2.142116 6.962506,6.419541 7.397884,11.773603 0.190653,2.344561 0.639119,2.79015 2.808164,2.79015 h 1.191011 v 1.911765 1.911765 H 50 33.088235 Z m 9.994143,-2.152285 c 0.834612,-0.493018 0.95694,-0.924127 1.011469,-3.564612 0.04075,-1.973311 0.0058,-2.523178 -0.193749,-3.045611 -0.321451,-0.841709 -0.9567,-1.237492 -1.986228,-1.237492 -0.700691,0 -0.824739,0.05274 -1.342936,0.570934 L 40,19.09793 v 2.873665 2.873665 l 0.392417,0.466361 c 0.21583,0.256499 0.530168,0.522087 0.69853,0.590197 0.513583,0.207767 1.561036,0.156197 1.991431,-0.09804 z m 8.066178,-0.05737 c 0.790857,-0.482174 0.910268,-0.983593 0.910268,-3.82234 0,-1.980288 -0.04821,-2.605244 -0.227728,-2.952403 -0.696528,-1.346938 -2.965664,-1.346938 -3.662192,0 -0.317073,0.613152 -0.329411,5.221065 -0.01599,5.971191 0.429114,1.027016 1.956928,1.436837 2.995642,0.803552 z M 59.506606,25.41053 60,24.872145 V 21.985037 19.09793 l -0.570934,-0.570935 c -0.518197,-0.518196 -0.642245,-0.570934 -1.342937,-0.570934 -0.99761,0 -1.652748,0.393502 -1.96835,1.18227 -0.180457,0.451005 -0.235426,1.121015 -0.235426,2.869547 0,2.55566 0.106941,2.993739 0.89209,3.654398 0.444033,0.373629 0.57435,0.407034 1.364838,0.349854 0.78125,-0.05651 0.926257,-0.12031 1.367325,-0.6016 z"
     style="fill:#ff0000;stroke:#ff0000;stroke-width:0.147059" />
</svg>
