<?xml version="1.0" encoding="UTF-8" standalone="no"?>
<svg
   xmlns:dc="http://purl.org/dc/elements/1.1/"
   xmlns:cc="http://creativecommons.org/ns#"
   xmlns:rdf="http://www.w3.org/1999/02/22-rdf-syntax-ns#"
   xmlns:svg="http://www.w3.org/2000/svg"
   xmlns="http://www.w3.org/2000/svg"
   id="svg56"
   xml:space="preserve"
   enable-background="new 0 0 100 100"
   viewBox="0 0 100 125"
   y="0px"
   x="0px"
   version="1.1"><metadata
     id="metadata62"><rdf:RDF><cc:Work
         rdf:about=""><dc:format>image/svg+xml</dc:format><dc:type
           rdf:resource="http://purl.org/dc/dcmitype/StillImage" /><dc:title></dc:title></cc:Work></rdf:RDF></metadata><defs
     id="defs60" /><g
     id="g50"><path
       id="path48"
       d="M75.085,34.384c-2.111-0.875-4.583-0.402-6.201,1.17c-0.594,0.578-0.607,1.527-0.029,2.121   c0.578,0.594,1.528,0.607,2.121,0.029c0.769-0.75,1.965-0.962,2.948-0.555c1.007,0.429,1.658,1.412,1.658,2.505V60.34   c0,1.095-0.651,2.079-1.652,2.505c-1.015,0.425-2.174,0.21-2.954-0.548c-0.065-0.063-0.135-0.12-0.21-0.17l-0.73-0.49l-2.792-4.675   c-0.175-0.283-0.479-0.462-0.813-0.474c-0.333-0.01-0.648,0.15-0.836,0.426l-0.817,1.195l-13.941-9.354L31.01,35.452   c-1.643-1.518-4.021-1.937-6.108-1.06c-2.116,0.9-3.484,2.968-3.484,5.268v20.684c0,2.299,1.368,4.366,3.496,5.271   c0.712,0.296,1.46,0.446,2.223,0.446c1.496,0,2.909-0.574,3.979-1.615c0.593-0.578,0.606-1.528,0.029-2.122   c-0.578-0.592-1.526-0.606-2.122-0.029c-0.768,0.748-1.966,0.962-2.948,0.554c-1.007-0.428-1.658-1.412-1.658-2.505V39.66   c0-1.095,0.651-2.079,1.652-2.505c1.014-0.427,2.174-0.211,2.954,0.548c0.065,0.063,0.135,0.12,0.21,0.17l19.93,13.372l13.92,9.34   l-0.859,1.256c-0.187,0.275-0.226,0.63-0.095,0.934c0.073,0.178,0.196,0.324,0.35,0.429c0.113,0.077,0.245,0.133,0.385,0.157   l5.645,0.97c0.056,0.008,0.097-0.006,0.15-0.003l0.329,0.221c1.072,0.991,2.457,1.513,3.87,1.513c0.752,0,1.513-0.148,2.238-0.453   c2.116-0.9,3.484-2.968,3.484-5.268V39.656C78.582,37.358,77.215,35.29,75.085,34.384z" /></g></svg>
