<?xml version="1.0" encoding="UTF-8" standalone="no"?>
<svg
   xmlns:dc="http://purl.org/dc/elements/1.1/"
   xmlns:cc="http://creativecommons.org/ns#"
   xmlns:rdf="http://www.w3.org/1999/02/22-rdf-syntax-ns#"
   xmlns:svg="http://www.w3.org/2000/svg"
   xmlns="http://www.w3.org/2000/svg"
   id="svg3076"
   y="0px"
   x="0px"
   version="1.1"
   viewBox="0 0 12.7 15.875">
  <title
     id="title3084">POMPA</title>
  <metadata
     id="metadata3082">
    <rdf:RDF>
      <cc:Work
         rdf:about="">
        <dc:format>image/svg+xml</dc:format>
        <dc:type
           rdf:resource="http://purl.org/dc/dcmitype/StillImage" />
        <dc:title>POMPA</dc:title>
      </cc:Work>
    </rdf:RDF>
  </metadata>
  <defs
     id="defs3080" />
  <g
     id="g3070"
     transform="translate(0,-284.29998)">
    <path
       id="path3068"
       stroke-width="0.2645613"
       fill="#000000"
       d="m 5.527847,288.59042 c -1.1129169,0 -2.0198557,0.88815 -2.0551775,1.99266 H 2.7300634 l -1.1870001,-0.29663 c -0.01932,-0.005 -0.04096,0 -0.05736,0.0119 -0.0164,0.0124 -0.0254,0.0318 -0.0254,0.0522 v 0.23254 H 0.59575134 c -0.03649,0 -0.06615,0.0296 -0.06615,0.0661 0,0.0365 0.02966,0.0661 0.06615,0.0661 H 1.4603033 v 0.23255 c 0,0.0204 0.0093,0.0398 0.0254,0.0522 0.01191,0.009 0.02593,0.014 0.04083,0.014 v 0.003 c 0.0056,0 0.01164,-0.003 0.0164,-0.003 l 1.18909,-0.29713 h 0.7405159 c 0.035322,1.10424 0.9422606,1.99263 2.0551775,1.99263 1.1129169,0 2.0200673,-0.88839 2.055151,-1.99263 h 3.2602753 v 0.23254 c 0,0.0204 0.0093,0.0398 0.0254,0.0522 0.01191,0.009 0.0254,0.014 0.04032,0.014 v 0.003 c 0.0056,0 0.01111,-0.003 0.01614,-0.003 l 1.195256,-0.29869 c 0.02942,-0.007 0.05014,-0.0337 0.05014,-0.0641 0,-0.0304 -0.02064,-0.0576 -0.05014,-0.0646 l -1.195256,-0.29869 c -0.01905,-0.005 -0.04045,0 -0.05686,0.0119 -0.0164,0.0124 -0.0254,0.0318 -0.0254,0.0522 v 0.23254 H 7.5824708 c -0.035322,-1.1045 -0.9422341,-1.99266 -2.055151,-1.99266 z m 0,0.13229 c 1.0225616,0 1.8594387,0.80105 1.9207956,1.80816 L 4.668983,288.92684 c 0.2588948,-0.12967 0.5501481,-0.20413 0.858864,-0.20413 z m -1.0490465,0.31263 v 3.22721 c -0.527341,-0.34402 -0.8774642,-0.93806 -0.8774642,-1.61333 0,-0.67532 0.3500967,-1.26979 0.8774642,-1.61388 z m 0.1322917,0.0103 2.7770931,1.60354 -2.7770931,1.6035 z m -3.0184199,1.38908 0.8568005,0.21448 -0.8568005,0.21394 v -0.21394 z m 9.3823907,0 0.856773,0.21448 -0.856773,0.21394 z m -3.5264204,0.33229 c -0.061463,1.00696 -0.8981546,1.80817 -1.9207956,1.80817 -0.3084248,0 -0.5990961,-0.0747 -0.8578321,-0.20413 z"
       style="" />
  </g>
</svg>
