<?xml version="1.0" encoding="UTF-8" standalone="no"?>
<svg
   xmlns:dc="http://purl.org/dc/elements/1.1/"
   xmlns:cc="http://creativecommons.org/ns#"
   xmlns:rdf="http://www.w3.org/1999/02/22-rdf-syntax-ns#"
   xmlns:svg="http://www.w3.org/2000/svg"
   xmlns="http://www.w3.org/2000/svg"
   xmlns:sodipodi="http://sodipodi.sourceforge.net/DTD/sodipodi-0.dtd"
   xmlns:inkscape="http://www.inkscape.org/namespaces/inkscape"
   inkscape:version="1.0 (4035a4fb49, 2020-05-01)"
   sodipodi:docname="POZZO.svg"
   id="svg2086"
   viewBox="0 0 100 125"
   y="0px"
   x="0px"
   version="1.1">
  <metadata
     id="metadata2092">
    <rdf:RDF>
      <cc:Work
         rdf:about="">
        <dc:format>image/svg+xml</dc:format>
        <dc:type
           rdf:resource="http://purl.org/dc/dcmitype/StillImage" />
        <dc:title></dc:title>
      </cc:Work>
    </rdf:RDF>
  </metadata>
  <defs
     id="defs2090" />
  <sodipodi:namedview
     inkscape:current-layer="svg2086"
     inkscape:window-maximized="1"
     inkscape:window-y="-8"
     inkscape:window-x="-8"
     inkscape:cy="57.748727"
     inkscape:cx="36.598973"
     inkscape:zoom="4.8083261"
     showgrid="false"
     id="namedview2088"
     inkscape:window-height="1018"
     inkscape:window-width="1920"
     inkscape:pageshadow="2"
     inkscape:pageopacity="0"
     guidetolerance="10"
     gridtolerance="10"
     objecttolerance="10"
     borderopacity="1"
     bordercolor="#666666"
     pagecolor="#ffffff" />
  <g
     id="g2080"
     transform="translate(-8.73435,-959.45596)">
    <path
       id="path2078"
       overflow="visible"
       display="inline"
       visibility="visible"
       marker="none"
       stroke="Param(outline) #000"
	   stroke-width="Param(outline-width) 1"
       fill-opacity="1"
       fill="Param(fill) #FFF"
       d="m 50.01565,959.45596 c -11.66487,0 -22.19896,1.75171 -29.6875,4.53125 -3.74427,1.38977 -6.71707,3.04876 -8.6875,4.78125 -1.97043,1.73249 -2.90625,3.44837 -2.90625,5.15625 v 2.5 a 1.3001301,1.3001301 0 0 1 0,0.125 c 0,1.68208 0.93696,3.38461 2.90625,5.09375 1.96929,1.70914 4.94251,3.35005 8.6875,4.71875 7.48997,2.73741 18.02019,4.46875 29.6875,4.46875 11.6673,0 22.16628,-1.73134 29.65625,-4.46875 3.74499,-1.3687 6.74946,-3.00961 8.71875,-4.71875 1.96929,-1.70914 2.875,-3.41167 2.875,-5.09375 v -0.0937 a 1.3001301,1.3001301 0 0 1 0,-0.125 v -2.40625 c 0,-1.70788 -0.93582,-3.42376 -2.90625,-5.15625 -1.97043,-1.73249 -4.94323,-3.39148 -8.6875,-4.78125 -7.48854,-2.77954 -17.99139,-4.53125 -29.65625,-4.53125 z m 0,3.34375 c 9.49979,0 18.04615,1.10092 24.34375,2.96875 3.1488,0.93392 5.7328,2.04202 7.625,3.375 1.8922,1.33298 3.21875,3.01909 3.21875,5 v 0.28125 c 0,1.98091 -1.32655,3.66703 -3.21875,5 -1.8922,1.33297 -4.4762,2.44108 -7.625,3.375 -6.2976,1.86783 -14.84396,2.96875 -24.34375,2.96875 -9.49979,0 -18.0774,-1.10092 -24.375,-2.96875 -3.1488,-0.93392 -5.73279,-2.04203 -7.625,-3.375 -1.89221,-1.33297 -3.21875,-3.01909 -3.21875,-5 v -0.28125 c 0,-1.98091 1.32654,-3.66702 3.21875,-5 1.89221,-1.33298 4.4762,-2.44108 7.625,-3.375 6.2976,-1.86783 14.87521,-2.96875 24.375,-2.96875 z M 8.7344,982.48721 v 9.90625 a 1.3001301,1.3001301 0 0 1 0,0.125 c 0,1.15954 0.817,2.49263 2.78125,3.875 0.12841,0.0904 0.2691,0.19155 0.40625,0.28125 v -11.53125 c -0.7263,-0.487 -1.39344,-1.00482 -2,-1.53125 -0.42687,-0.37048 -0.82283,-0.72909 -1.1875,-1.125 z m 82.53125,0 c -0.36467,0.39591 -0.76063,0.75452 -1.1875,1.125 -0.61625,0.53484 -1.29145,1.06836 -2.03125,1.5625 v 11.53125 c 0.15003,-0.0976 0.29781,-0.2142 0.4375,-0.3125 1.96425,-1.38237 2.78125,-2.71546 2.78125,-3.875 a 1.3001301,1.3001301 0 0 1 0,-0.21875 z m -76.71875,4.1875 v 11.4375 c 1.61476,0.75575 3.50641,1.44665 5.6875,2.09379 7.23168,2.1455 17.30707,3.5214 28.46875,3.625 v -10.43754 c -11.39361,-0.124 -21.68247,-1.81657 -29.28125,-4.59375 -1.78385,-0.65196 -3.4016,-1.35604 -4.875,-2.125 z m 70.875,0.0312 c -1.46369,0.76147 -3.07498,1.44731 -4.84375,2.09375 -7.60578,2.77974 -17.8772,4.47257 -29.28125,4.59375 v 10.43749 c 11.17211,-0.1012 21.23026,-1.4774 28.46875,-3.625 2.16945,-0.64364 4.04683,-1.34246 5.65625,-2.09374 z m -76.6875,10.8125 v 9.34379 a 1.3001301,1.3001301 0 0 1 0.0937,0.5625 c 0,1.1676 0.78981,2.3794 2.71875,3.6562 1.92894,1.2768 4.89668,2.4602 8.625,3.4375 1.42544,0.3736 2.99065,0.7195 4.625,1.0313 v -11.5 c -1.86487,-0.4009 -3.6486,-0.8594 -5.28125,-1.3438 -3.93247,-1.1667 -7.17007,-2.5478 -9.5,-4.18749 -0.45963,-0.32347 -0.88854,-0.64713 -1.28125,-1 z m 82.53125,0 c -0.39271,0.35287 -0.82162,0.67653 -1.28125,1 -2.32993,1.63969 -5.56753,3.02079 -9.5,4.18749 -3.75237,1.1133 -8.16463,2.0146 -13.03125,2.6563 a 1.3001301,1.3001301 0 0 1 0.0625,0.3125 v 10.7812 c 4.5267,-0.6241 8.62245,-1.4794 12.0625,-2.5 3.75886,-1.1152 6.7545,-2.4301 8.71875,-3.8125 1.96425,-1.3824 2.78125,-2.7155 2.78125,-3.875 a 1.3001301,1.3001301 0 0 1 0.1875,-0.6875 z m -63.84375,7.03129 v 11.4687 c 6.4291,1.0299 14.10233,1.5938 22.40625,1.5938 5.32652,0 10.39056,-0.2794 15.0625,-0.8125 v -11.125 c -4.64104,0.5079 -9.62912,0.7812 -14.875,0.7812 -8.29825,0 -16.00551,-0.6976 -22.59375,-1.9062 z m 63.84375,6.5625 c -0.44043,0.4127 -0.93781,0.7825 -1.46875,1.1562 -2.26564,1.5945 -5.37139,2.9477 -9.15625,4.0938 v 10.5 c 3.24406,-1.0437 5.88808,-2.2557 7.65625,-3.5 1.96425,-1.3824 2.78125,-2.6843 2.78125,-3.8438 a 1.3001301,1.3001301 0 0 1 0.1875,-0.6875 z m -82.53125,1.0937 v 8.0938 a 1.3001301,1.3001301 0 0 1 0,0.25 c 0,1.1649 0.78063,2.4021 2.71875,3.6875 1.11852,0.7417 2.61709,1.4656 4.375,2.125 v -10.4375 c -2.24077,-0.7829 -4.19113,-1.6764 -5.71875,-2.6875 -0.49363,-0.3268 -0.95794,-0.6669 -1.375,-1.0313 z m 9.6875,4.5313 v 10.5 c 0.55378,0.1667 1.09433,0.312 1.6875,0.4687 7.19608,1.9014 17.22659,3.0419 28.40625,3.125 v -10.625 c -11.34417,-0.08 -21.49482,-1.189 -29,-3.1562 -0.38254,-0.1003 -0.72496,-0.2077 -1.09375,-0.3125 z m 59.625,0.3437 c -7.29531,1.8805 -16.62564,3.0026 -26.90625,3.0938 v 10.625 c 10.41312,-0.094 19.81599,-1.2841 26.90625,-3.1875 z m 13.21875,7.2188 c -0.44428,0.4153 -0.9318,0.8096 -1.46875,1.1875 -0.70449,0.4958 -1.48316,0.9837 -2.34375,1.4375 a 1.3001301,1.3001301 0 0 1 0.0625,0.4375 v 9.3125 c 0.29702,-0.2264 0.58168,-0.4575 0.84375,-0.6875 1.97008,-1.7291 2.90625,-3.4484 2.90625,-5.1563 z m -82.53125,1.125 v 5.4062 c 0,1.7079 0.93617,3.4272 2.90625,5.1563 1.97008,1.729 4.94318,3.3646 8.6875,4.75 0.54855,0.2029 1.13828,0.4019 1.71875,0.5937 l 0.0625,-10.4375 c -0.91317,-0.2016 -1.80831,-0.4322 -2.65625,-0.6562 -3.90854,-1.0328 -7.11409,-2.3029 -9.4375,-3.8438 -0.46183,-0.3063 -0.88654,-0.6289 -1.28125,-0.9687 z m 76.1875,2.6562 c -1.4012,0.5854 -2.91681,1.1275 -4.59375,1.625 -5.64525,1.6749 -12.77813,2.8387 -20.75,3.375 v 11.7188 a 1.3001301,1.3001301 0 0 1 0,0.062 c 7.78671,-0.6713 14.72389,-2.1382 20.09375,-4.125 1.98406,-0.7341 3.73351,-1.5238 5.25,-2.375 a 1.3001301,1.3001301 0 0 1 0,-0.2188 v -10.0625 z m -60.1875,3.3125 -0.0937,10.7188 c 6.99516,1.9606 15.79072,3.1562 25.375,3.1562 2.38311,0 4.69852,-0.078 6.96875,-0.2187 a 1.3001301,1.3001301 0 0 1 0,-0.25 v -11.5625 c -2.32997,0.113 -4.71361,0.1875 -7.15625,0.1875 -9.40042,0 -18.01981,-0.7145 -25.09375,-2.0313 z"
       style="color:#000000;text-indent:0;text-transform:none;direction:ltr;baseline-shift:baseline;enable-background:accumulate" />
  </g>
</svg>
