<?xml version="1.0" encoding="UTF-8" standalone="no"?>
<svg
   xmlns:dc="http://purl.org/dc/elements/1.1/"
   xmlns:cc="http://creativecommons.org/ns#"
   xmlns:rdf="http://www.w3.org/1999/02/22-rdf-syntax-ns#"
   xmlns:svg="http://www.w3.org/2000/svg"
   xmlns="http://www.w3.org/2000/svg"
   xmlns:sodipodi="http://sodipodi.sourceforge.net/DTD/sodipodi-0.dtd"
   xmlns:inkscape="http://www.inkscape.org/namespaces/inkscape"
   inkscape:version="1.0 (4035a4fb49, 2020-05-01)"
   sodipodi:docname="PRESA_SUPERFICIALE.svg"
   id="svg1493"
   xml:space="preserve"
   style="enable-background:new 0 0 100 100;"
   viewBox="0 0 100 125"
   y="0px"
   x="0px"
   version="1.1"><metadata
     id="metadata1499"><rdf:RDF><cc:Work
         rdf:about=""><dc:format>image/svg+xml</dc:format><dc:type
           rdf:resource="http://purl.org/dc/dcmitype/StillImage" /><dc:title></dc:title></cc:Work></rdf:RDF></metadata><defs
     id="defs1497" /><sodipodi:namedview
     inkscape:current-layer="svg1493"
     inkscape:window-maximized="1"
     inkscape:window-y="-8"
     inkscape:window-x="-8"
     inkscape:cy="57.809641"
     inkscape:cx="45.309641"
     inkscape:zoom="4.8083261"
     showgrid="false"
     id="namedview1495"
     inkscape:window-height="1018"
     inkscape:window-width="1920"
     inkscape:pageshadow="2"
     inkscape:pageopacity="0"
     guidetolerance="10"
     gridtolerance="10"
     objecttolerance="10"
     borderopacity="1"
     bordercolor="#666666"
     pagecolor="#ffffff" /><style
     id="style1187"
     type="text/css">
	.st0{fill-rule:evenodd;clip-rule:evenodd;}
	.st1{fill:#FFFFFF;}
</style><g
     transform="translate(-5,-4.3)"
     id="g1487"><path
       id="path1189"
       d="M 70.9,7.1 91.8,43.6 70.9,79.9 H 29.1 L 8.1,43.5 29.1,7.1 h 41.6 m 1.8,-2.8 h -45 L 5,43.5 27.5,82.7 h 45 L 95,43.5 Z" /><path
       id="path1191"
       d="M 70.2,9 H 29.8 L 9.6,43.5 29.8,78 H 70.2 L 90.4,43.5 Z M 30.3,10 H 69.6 L 89.3,43.6 76.2,66 c 0,-0.1 0,-0.2 -0.1,-0.3 -0.1,-0.1 -0.2,0 -0.3,0.1 -0.1,0.1 0,0.2 0,0.3 0.1,0 0.2,0 0.2,-0.1 l -0.4,0.7 c -0.1,-0.1 -0.3,-0.2 -0.4,-0.3 0,0 0,-0.1 0,-0.1 0,0 -0.1,0 -0.1,0 -0.1,-0.1 -0.3,-0.1 -0.4,-0.2 -0.4,-0.2 -0.9,-0.6 -1.5,-0.9 0,0 0,-0.1 0,-0.1 0,0 -0.1,0 -0.1,0 -0.6,-0.4 -1.2,-0.8 -1.9,-1.2 -0.6,-0.4 -1.3,-0.9 -2.1,-1.3 0,0 0,0 0,0 0.1,-0.1 0.1,-0.2 0,-0.3 -0.1,-0.1 -0.2,0 -0.3,0.1 0,0 0,0 0,0 -0.4,-0.3 -0.9,-0.6 -1.3,-0.9 0,0 0,-0.1 0,-0.1 0,0 -0.1,0 -0.1,0 -0.9,-0.6 -1.8,-1.2 -2.7,-1.9 0,0 0.1,0 0.1,-0.1 0.1,-0.1 0.1,-0.2 0,-0.3 -0.1,-0.1 -0.2,0 -0.3,0.1 0,0 0,0.1 -0.1,0.1 -0.2,-0.2 -0.4,-0.3 -0.6,-0.5 0,-0.1 0,-0.2 0,-0.2 -0.1,0 -0.1,0 -0.2,0 -0.6,-0.5 -1.2,-1 -1.7,-1.5 0,0 0,0 0,0 0.1,-0.1 0.1,-0.2 0,-0.3 -0.1,-0.1 -0.2,0 -0.3,0.1 0,0 0,0 0,0 -0.2,-0.1 -0.3,-0.3 -0.5,-0.4 -0.2,-0.2 -0.4,-0.4 -0.6,-0.6 0,0 0,0 0,-0.1 0,0 0,0 -0.1,0 -0.5,-0.5 -0.9,-1 -1.3,-1.5 0,0 0,0 0,-0.1 0,0 0,0 -0.1,0 0,0 0,0 0,0 -0.3,-0.4 -0.4,-0.6 -0.7,-1.1 -0.3,-0.6 -0.6,-1.1 -0.9,-1.6 -0.3,-0.4 -0.5,-0.8 -0.8,-1.2 0,0 0,0 0,0 0.1,-0.1 0.1,-0.2 0.1,-0.3 -0.1,-0.1 -0.2,-0.1 -0.3,0 0,0 0,0 0,0 -0.3,-0.4 -0.6,-0.9 -0.9,-1.3 0,-0.1 -0.1,-0.1 -0.1,-0.2 0,0 0,-0.1 0,-0.1 0,0 0,0 -0.1,0 -0.2,-0.3 -0.5,-0.7 -0.7,-1 -0.3,-0.4 -0.7,-0.9 -1,-1.3 -0.2,-0.3 -0.5,-0.5 -0.7,-0.8 0.1,0 0.1,0 0.1,-0.1 0.1,-0.1 0.1,-0.2 0,-0.3 -0.1,-0.1 -0.2,-0.1 -0.3,0 0,0 -0.1,0.1 -0.1,0.1 -0.2,-0.2 -0.5,-0.4 -0.7,-0.6 0,-0.1 0,-0.2 -0.1,-0.2 -0.1,-0.1 -0.2,-0.1 -0.2,0 0,0 -0.1,-0.1 -0.1,-0.1 -0.6,-0.5 -1.1,-0.9 -1.5,-1.2 -0.1,-0.1 -0.2,-0.2 -0.3,-0.3 0,0 0,0 0,0 0.1,-0.1 0.1,-0.2 0,-0.3 -0.1,-0.1 -0.2,0 -0.3,0.1 0,0 0,0 0,0 -0.3,-0.3 -0.5,-0.5 -0.5,-0.5 0,0 -0.2,-0.2 -0.6,-0.6 0,0 0,-0.1 0,-0.1 0,0 0,0 -0.1,0 C 48.1,41.1 48,41 48,40.9 c -0.3,-0.3 -0.6,-0.7 -0.9,-1.2 0,0 0,-0.1 0,-0.1 0,0 0,0 -0.1,0 -0.1,-0.1 -0.1,-0.2 -0.2,-0.3 -0.1,-0.1 -0.1,-0.2 -0.2,-0.3 -0.1,-0.2 -0.2,-0.5 -0.3,-0.8 -0.2,-0.6 -0.4,-1.3 -0.6,-2.1 0,0 0,0 0,0 0.1,0 0.2,-0.1 0.2,-0.2 0,-0.1 0.2,0.1 0.1,0.2 0,0 0,0 0,0 -0.1,-0.5 -0.2,-1 -0.3,-1.5 0,0 0,-0.1 0,-0.1 0,0 0,0 0,-0.1 C 45.6,34 45.5,33.5 45.4,33 45.3,32.4 45.2,31.7 45,31 c 0,0 0.1,0 0.2,0 0.1,0 0.2,-0.1 0.2,-0.2 0,-0.1 -0.1,-0.2 -0.3,-0.2 -0.1,0 -0.1,0 -0.1,0.1 0,-0.3 -0.1,-0.5 -0.2,-0.8 0.1,0 0.1,-0.1 0.1,-0.2 0,-0.1 -0.1,-0.1 -0.2,-0.1 -0.2,-0.8 -0.4,-1.7 -0.6,-2.5 0,0 0,0 0.1,0 0.1,0 0.2,-0.2 0.2,-0.3 0,-0.1 -0.2,-0.2 -0.3,-0.2 0,0 0,0 0,0 -0.1,-0.3 -0.1,-0.5 -0.2,-0.8 -0.1,-0.3 -0.2,-0.7 -0.3,-1 0,0 0,-0.1 0,-0.1 0,0 0,0 -0.1,-0.1 -0.3,-0.8 -0.6,-1.7 -1.1,-2.6 0,0 0,-0.1 0,-0.1 0,0 -0.1,0 -0.1,-0.1 0,0 0,0 0,-0.1 -0.2,-0.4 -0.5,-0.7 -0.7,-1 -0.2,-0.3 -0.4,-0.5 -0.7,-0.8 -0.4,-0.5 -0.9,-1 -1.3,-1.4 -0.4,-0.4 -0.7,-0.7 -1.1,-1 0,0 0,0 0,0 0.1,-0.1 0.1,-0.2 0,-0.3 -0.1,-0.1 -0.2,-0.1 -0.3,0 0,0 0,0 0,0 -0.5,-0.4 -0.9,-0.8 -1.4,-1.1 0,0 0,0 0,-0.1 0,0 0,0 -0.1,0 -0.8,-0.6 -1.5,-1.1 -2.2,-1.6 -0.3,-0.2 -0.5,-0.3 -0.7,-0.5 0,0 0.1,0 0.1,-0.1 0.1,-0.1 0.1,-0.2 0,-0.3 -0.1,-0.1 -0.2,0 -0.3,0.1 0,0 0,0.1 0,0.1 -0.2,-0.2 -0.5,-0.3 -0.7,-0.5 0,-0.1 0,-0.2 -0.1,-0.2 -0.1,0 -0.2,0 -0.2,0 -0.7,-0.4 -1.3,-0.8 -1.7,-1.1 -0.1,-0.1 -0.3,-0.2 -0.4,-0.2 0,0 0,0 0,0 0.1,-0.1 0,-0.2 -0.1,-0.3 -0.1,-0.1 -0.2,0 -0.3,0.1 0,0 0,0 0,0 -0.5,-0.3 -0.7,-0.3 -0.7,-0.3 z M 69.7,77 H 30.3 L 10.7,43.4 26.4,16.5 c 0,0 0.5,0.3 1.3,0.8 0,0 0,0 0.1,0.1 -0.1,0 -0.1,0.1 -0.1,0.1 -0.1,0.1 -0.1,0.2 0,0.3 0.1,0.1 0.2,0 0.3,-0.1 0,-0.1 0,-0.1 0,-0.2 0.2,0.1 0.5,0.3 0.8,0.5 -0.1,0 -0.1,0.1 -0.1,0.1 -0.1,0.1 -0.1,0.2 0,0.3 0.1,0.1 0.2,0 0.3,-0.1 0,-0.1 0,-0.1 0,-0.2 0.6,0.4 1.3,0.9 2.1,1.5 0.6,0.5 1.3,1 2,1.5 0,0 0,0.1 0,0.1 0,0 0.1,0 0.1,0 0.5,0.4 1.1,0.9 1.6,1.4 0,0 -0.1,0 -0.1,0.1 -0.1,0.1 -0.1,0.2 0,0.3 0.1,0.1 0.2,0 0.3,-0.1 0,0 0.1,-0.1 0.1,-0.1 0.1,0.1 0.3,0.2 0.4,0.3 0.4,0.3 0.7,0.7 1,1 l 0.2,0.2 c -0.1,0.1 -0.1,0.2 0,0.2 0,0.1 0.1,0 0.2,0 l 0.1,0.1 c 0.1,0.1 0.2,0.3 0.3,0.4 0.3,0.5 0.5,1.1 0.8,1.8 0,0 0,0.1 0,0.1 0,0 0,0.1 0.1,0.1 0.1,0.2 0.1,0.4 0.2,0.6 0.1,0.5 0.2,0.9 0.4,1.4 0,0 -0.1,0 -0.2,0 -0.1,0 -0.2,0.1 -0.2,0.2 0,0.1 0.1,0.2 0.3,0.1 0.1,0 0.1,0 0.1,-0.1 0.1,0.3 0.1,0.6 0.2,0.9 0,0 -0.1,0 -0.2,0 -0.1,0 -0.2,0.1 -0.2,0.2 0,0.1 0.1,0.2 0.3,0.1 0.1,0 0.1,0 0.1,-0.1 0.3,1.2 0.5,2.5 0.7,3.7 0.1,0.5 0.2,1 0.3,1.6 0,0 0,0.1 0,0.1 0,0 0,0.1 0.1,0.1 0.2,0.8 0.3,1.6 0.5,2.4 -0.1,0 -0.1,0 -0.2,0 -0.1,0 -0.2,0.2 -0.2,0.3 0,0.1 0.2,0.2 0.3,0.2 0.1,0 0.1,-0.1 0.1,-0.1 0.2,0.6 0.3,1.3 0.5,1.9 0.2,0.4 0.3,0.7 0.4,1.1 -0.1,0.1 -0.1,0.2 0,0.3 0.1,0.1 0.2,0.2 0.3,0.2 0.1,0.3 0.3,0.5 0.4,0.7 0.1,0.2 0.2,0.4 0.4,0.6 0.5,0.7 0.9,1.3 1.3,1.8 0.2,0.2 0.4,0.4 0.5,0.6 0,0 0,0.1 0,0.1 0,0 0.1,0 0.1,0.1 0.1,0.1 0.2,0.2 0.3,0.3 0.2,0.2 0.4,0.4 0.4,0.4 0,0 0.5,0.5 1.4,1.2 0,0 0,0 0.1,0.1 -0.1,0 -0.1,0 -0.2,0.1 -0.1,0.1 -0.1,0.2 0,0.3 0.1,0.1 0.2,0 0.3,-0.1 0,-0.1 0.1,-0.1 0.1,-0.2 0.2,0.2 0.5,0.4 0.7,0.6 -0.1,0 -0.1,0 -0.1,0.1 -0.1,0.1 -0.1,0.2 0,0.3 0.1,0.1 0.2,0 0.3,-0.1 0,0 0.1,-0.1 0.1,-0.2 0.6,0.5 1.1,0.9 1.6,1.5 0.2,0.3 0.4,0.5 0.7,0.9 0.2,0.3 0.5,0.7 0.7,1 0,0 0,0.1 0,0.1 0,0 0.1,0 0.1,0.1 0.4,0.6 0.8,1.2 1.2,1.8 -0.1,0 -0.1,0 -0.2,0 -0.1,0.1 -0.2,0.2 -0.1,0.3 0.1,0.1 0.2,0.1 0.3,0 0.1,0 0.1,-0.1 0.1,-0.1 0.1,0.1 0.2,0.3 0.3,0.4 0.3,0.4 0.5,0.9 0.7,1.3 0.1,0.1 0.1,0.3 0.2,0.4 -0.1,0.1 -0.1,0.2 0,0.3 0.1,0.1 0.2,0.1 0.3,0.1 0.2,0.4 0.5,0.8 0.7,1.1 0.6,0.8 1.3,1.6 2,2.3 0,0 0,0.1 0.1,0.1 0,0 0.1,0.1 0.1,0.1 0.2,0.2 0.4,0.3 0.5,0.5 0.4,0.4 0.9,0.8 1.3,1.2 -0.1,0 -0.1,0 -0.2,0.1 -0.1,0.1 -0.1,0.2 0,0.3 0.1,0.1 0.2,0.1 0.3,0 0,0 0.1,-0.1 0.1,-0.2 0.3,0.2 0.5,0.4 0.8,0.6 -0.1,0 -0.1,0 -0.2,0.1 -0.1,0.1 -0.1,0.2 0,0.3 0.1,0.1 0.2,0.1 0.3,0 0,-0.1 0.1,-0.1 0.1,-0.2 1.5,1.2 3.1,2.4 4.5,3.4 0,0 0,0.1 0.1,0.1 0,0 0.1,0 0.1,0 0.7,0.5 1.4,0.9 2,1.3 -0.1,0 -0.1,0.1 -0.1,0.1 -0.1,0.1 -0.1,0.2 0,0.3 0.1,0.1 0.2,0 0.3,-0.1 0,-0.1 0,-0.1 0,-0.2 0.5,0.3 1,0.6 1.5,0.9 0.3,0.2 0.5,0.3 0.8,0.5 0,0.1 0,0.2 0.1,0.2 0.1,0 0.2,0 0.2,0 1.1,0.6 2,1.2 2.6,1.6 0.2,0.1 0.4,0.2 0.6,0.3 0,0 0,0.1 0.1,0.1 0,0 0.1,0 0.1,0 0.1,0.1 0.2,0 0.2,0 z" /><circle
       r="0.2"
       id="ellipse1193"
       cy="11.8"
       cx="31.4"
       transform="matrix(0.8444,0.5358,-0.5358,0.8444,11.2226,-15.0109)" /><circle
       r="0.2"
       id="ellipse1195"
       cy="12.6"
       cx="32.299999"
       transform="matrix(0.8385,0.545,-0.545,0.8385,12.1102,-15.565)" /><circle
       r="0.2"
       id="ellipse1197"
       cy="13.2"
       cx="33.599998"
       transform="matrix(-0.5612,0.8277,-0.8277,-0.5612,63.4238,-7.1706)" /><circle
       r="0.2"
       id="ellipse1199"
       cy="12.3"
       cx="33.299999"
       transform="matrix(0.8318,0.5551,-0.5551,0.8318,12.4354,-16.4019)" /><circle
       r="0.2"
       id="ellipse1201"
       cy="14.1"
       cx="34.5"
       transform="matrix(0.8163,0.5776,-0.5776,0.8163,14.4934,-17.3299)" /><circle
       r="0.2"
       id="ellipse1203"
       cy="14.8"
       cx="35.5"
       transform="matrix(0.8059,0.592,-0.592,0.8059,15.6595,-18.1234)" /><circle
       r="0.2"
       id="ellipse1205"
       cy="14.8"
       cx="36.299999"
       transform="matrix(0.8036,0.5952,-0.5952,0.8036,15.9231,-18.7354)" /><circle
       r="0.2"
       id="ellipse1207"
       cy="15.7"
       cx="36.400002"
       transform="matrix(-0.7927,-0.6097,0.6097,-0.7927,55.6884,50.3276)" /><path
       id="path1209"
       d="m 37.8,16.1 c 0.1,-0.1 0.1,-0.2 0,-0.3 -0.1,-0.1 -0.2,-0.1 -0.3,0.1 -0.1,0.1 -0.1,0.2 0,0.3 0.1,0.1 0.2,0 0.3,-0.1 z" /><circle
       r="0.2"
       id="ellipse1211"
       cy="16.700001"
       cx="38"
       transform="matrix(-0.6352,0.7723,-0.7723,-0.6352,75.012,-1.9378)" /><path
       id="path1213"
       d="m 39.7,17.9 c 0.1,-0.1 0.1,-0.2 0,-0.3 -0.1,-0.1 -0.2,-0.1 -0.3,0 -0.1,0.1 -0.1,0.2 0,0.3 0,0.1 0.2,0.1 0.3,0 z" /><path
       id="path1215"
       d="m 40.4,19 c 0.1,-0.1 0.1,-0.2 0,-0.3 -0.1,-0.1 -0.2,-0.1 -0.3,0 -0.1,0.1 -0.1,0.2 0,0.3 0.1,0.1 0.2,0.1 0.3,0 z" /><path
       id="path1217"
       d="m 41.4,19.6 c -0.1,0.1 -0.1,0.2 0,0.3 0.1,0.1 0.2,0.1 0.3,0 0.1,-0.1 0.1,-0.2 0,-0.3 -0.1,-0.1 -0.2,-0.1 -0.3,0 z" /><circle
       r="0.2"
       id="ellipse1219"
       cy="18.799999"
       cx="41.400002"
       transform="matrix(0.6913,0.7226,-0.7226,0.6913,26.3163,-24.0892)" /><path
       id="path1221"
       d="m 42.5,21.5 c 0.1,-0.1 0.1,-0.2 0,-0.4 -0.1,-0.1 -0.3,-0.2 -0.4,-0.1 -0.1,0.1 -0.1,0.3 0,0.4 0.1,0.1 0.3,0.1 0.4,0.1 z" /><path
       id="path1223"
       d="m 43.1,22.9 c 0.1,-0.1 0.2,-0.2 0.1,-0.3 -0.1,-0.1 -0.2,-0.2 -0.3,-0.1 -0.1,0.1 -0.2,0.2 -0.1,0.3 0.1,0.1 0.2,0.1 0.3,0.1 z" /><path
       id="path1225"
       d="m 44.1,23.4 c 0.1,0 0.2,-0.2 0.1,-0.3 C 44.1,23 44,22.9 43.9,23 c -0.1,0.1 -0.2,0.2 -0.1,0.3 0.1,0.1 0.2,0.1 0.3,0.1 z" /><circle
       r="0.2"
       id="ellipse1227"
       cy="24.1"
       cx="43.599998"
       transform="matrix(0.3579,0.9338,-0.9338,0.3579,50.4805,-25.2672)" /><circle
       id="circle1229"
       r="0.2"
       cy="25.1"
       cx="44.5" /><path
       id="path1231"
       d="m 44.3,25.7 c -0.1,0 -0.2,0.2 -0.2,0.3 v 0 c 0,0.1 0.2,0.2 0.3,0.1 0.1,0 0.2,-0.2 0.2,-0.3 v 0 c 0,0 -0.2,-0.1 -0.3,-0.1 z" /><circle
       r="0.2"
       id="ellipse1233"
       cy="27.700001"
       cx="45.099998"
       transform="matrix(0.2223,0.975,-0.975,0.2223,62.0286,-22.4098)" /><circle
       r="0.2"
       id="ellipse1235"
       cy="28.9"
       cx="45.099998"
       transform="matrix(-0.2003,-0.9797,0.9797,-0.2003,25.8106,78.8618)" /><circle
       r="0.2"
       id="ellipse1237"
       cy="30.200001"
       cx="45.599998"
       transform="matrix(0.1866,0.9824,-0.9824,0.1866,66.7839,-20.2101)" /><circle
       r="0.2"
       id="ellipse1239"
       cy="29.4"
       cx="46"
       transform="matrix(0.1999,0.9798,-0.9798,0.1999,65.5714,-21.5936)" /><circle
       r="0.2"
       id="ellipse1241"
       cy="31.5"
       cx="45.599998"
       transform="matrix(0.1821,0.9833,-0.9833,0.1821,68.2153,-19.1016)" /><circle
       r="0.2"
       id="ellipse1243"
       cy="32.599998"
       cx="45.799999"
       transform="matrix(0.1812,0.9834,-0.9834,0.1812,69.5404,-18.362)" /><circle
       r="0.2"
       id="ellipse1245"
       cy="33.099998"
       cx="46.5"
       transform="matrix(0.1826,0.9832,-0.9832,0.1826,70.5231,-18.6439)" /><circle
       r="0.2"
       id="ellipse1247"
       cy="33.799999"
       cx="45.900002"
       transform="matrix(-0.1828,-0.9831,0.9831,-0.1828,21.0547,85.0473)" /><circle
       r="0.2"
       id="ellipse1249"
       cy="34.700001"
       cx="46.599998"
       transform="matrix(-0.9809,0.1947,-0.1947,-0.9809,99.0526,59.7095)" /><path
       id="path1251"
       d="m 46.3,35.2 c -0.1,0 -0.2,0.1 -0.2,0.2 0,0.1 0.1,0.2 0.3,0.1 0.1,0 0.2,-0.1 0.2,-0.2 -0.1,0 -0.2,-0.1 -0.3,-0.1 z" /><circle
       r="0.2"
       id="ellipse1253"
       cy="36.900002"
       cx="46.900002"
       transform="matrix(-0.9705,0.241,-0.241,-0.9705,101.3119,61.3142)" /><circle
       r="0.2"
       id="ellipse1255"
       cy="37.799999"
       cx="46.900002"
       transform="matrix(-0.9586,0.2847,-0.2847,-0.9586,102.6965,60.7678)" /><path
       id="path1257"
       d="m 47.5,38.9 c 0.1,-0.1 0.2,-0.1 0.2,-0.2 0,-0.1 -0.1,-0.1 -0.3,0 -0.1,0 -0.2,0.1 -0.2,0.2 0.1,0 0.2,0 0.3,0 z" /><path
       id="path1259"
       d="m 47.9,38.2 c 0.1,0 0.2,-0.1 0.2,-0.2 0,-0.1 -0.1,-0.1 -0.3,-0.1 -0.1,0 -0.2,0.1 -0.2,0.2 0,0.1 0.2,0.1 0.3,0.1 z" /><path
       id="path1261"
       d="m 47.7,39.3 c 0,-0.1 -0.1,0 -0.3,0 -0.1,0.1 -0.2,0.2 -0.2,0.2 0,0.1 0.2,0.1 0.3,0 0.2,0 0.3,-0.1 0.2,-0.2 z" /><circle
       r="0.2"
       id="ellipse1263"
       cy="40.200001"
       cx="47.900002"
       transform="matrix(-0.5821,-0.8131,0.8131,-0.5821,43.0514,102.5784)" /><path
       id="path1265"
       d="m 48.8,40.3 c 0.1,-0.1 0.1,-0.2 0.1,-0.3 0,-0.1 -0.2,0 -0.3,0 -0.1,0.1 -0.2,0.2 -0.1,0.3 0.1,0.1 0.2,0.1 0.3,0 z" /><path
       id="path1267"
       d="m 48.6,41.1 c 0.1,-0.1 0.1,-0.2 0.1,-0.3 -0.1,-0.1 -0.2,-0.1 -0.3,0 -0.1,0.1 -0.1,0.2 -0.1,0.3 0,0.1 0.2,0.1 0.3,0 z" /><ellipse
       id="ellipse1269"
       ry="0.2"
       rx="0.1"
       cy="41.200001"
       cx="49.400002"
       transform="matrix(0.7032,0.711,-0.711,0.7032,43.9893,-22.8889)" /><path
       id="path1271"
       d="m 49.4,41.8 c -0.1,0.1 -0.1,0.2 0,0.3 l 0.3,-0.3 c -0.1,-0.2 -0.2,-0.1 -0.3,0 z" /><path
       id="path1273"
       d="m 44.6,46.5 c -0.1,0.1 -0.1,0.2 0,0.3 l 0.3,-0.3 c 0,-0.1 -0.2,-0.1 -0.3,0 z" /><path
       id="path1275"
       d="m 43.1,45.2 c -0.1,0.1 -0.1,0.2 0,0.3 0.1,0.1 0.2,0.1 0.3,0 0.1,-0.1 0.1,-0.2 0,-0.3 -0.1,-0.1 -0.2,-0.1 -0.3,0 z" /><circle
       r="0.2"
       id="ellipse1277"
       cy="44.099998"
       cx="42.599998"
       transform="matrix(-0.5792,-0.8152,0.8152,-0.5792,31.2609,104.3144)" /><path
       id="path1279"
       d="m 41.6,43 c 0.1,-0.1 0.1,-0.2 0.1,-0.4 -0.1,-0.1 -0.2,-0.2 -0.3,-0.2 -0.1,0 -0.1,0.2 -0.1,0.4 0,0.3 0.2,0.3 0.3,0.2 z" /><ellipse
       id="ellipse1281"
       ry="0.2"
       rx="0.30000001"
       cy="43.900002"
       cx="41.5"
       transform="matrix(-0.5356,-0.8445,0.8445,-0.5356,26.5791,102.4591)" /><ellipse
       id="ellipse1283"
       ry="0.2"
       rx="0.30000001"
       cy="41.200001"
       cx="40.900002"
       transform="matrix(-0.3552,-0.9348,0.9348,-0.3552,17.0186,94.0562)" /><circle
       id="circle1285"
       r="0.2"
       cy="39.799999"
       cx="40.5" /><path
       id="path1287"
       d="m 39.7,39.1 c -0.1,0 -0.2,0.2 -0.2,0.3 0,0.1 0.2,0.2 0.3,0.2 0.1,0 0.2,-0.2 0.2,-0.3 -0.1,-0.2 -0.2,-0.3 -0.3,-0.2 z" /><circle
       r="0.2"
       id="ellipse1289"
       cy="37.400002"
       cx="39.5"
       transform="matrix(0.977,-0.2131,0.2131,0.977,-7.0696,9.2784)" /><circle
       r="0.2"
       id="ellipse1291"
       cy="36.700001"
       cx="39.700001"
       transform="matrix(0.2024,0.9793,-0.9793,0.2024,67.5998,-9.6552)" /><circle
       r="0.2"
       id="ellipse1293"
       cy="35"
       cx="39.200001"
       transform="matrix(0.9828,-0.1848,0.1848,0.9828,-5.7965,7.84)" /><circle
       r="0.2"
       id="ellipse1295"
       cy="33.900002"
       cx="39.200001"
       transform="matrix(0.1811,0.9835,-0.9835,0.1811,65.386,-10.816)" /><circle
       r="0.2"
       id="ellipse1297"
       cy="32.599998"
       cx="38.700001"
       transform="matrix(-0.1845,-0.9828,0.9828,-0.1845,13.8338,76.639)" /><circle
       r="0.2"
       id="ellipse1299"
       cy="33.400002"
       cx="38.299999"
       transform="matrix(-0.1806,-0.9836,0.9836,-0.1806,12.3353,77.1028)" /><circle
       r="0.2"
       id="ellipse1301"
       cy="31.4"
       cx="38.700001"
       transform="matrix(0.1879,0.9822,-0.9822,0.1879,62.2959,-12.5371)" /><circle
       r="0.2"
       id="ellipse1303"
       cy="29.9"
       cx="37.799999"
       transform="matrix(-0.2225,-0.9749,0.9749,-0.2225,17.1231,73.4003)" /><circle
       r="0.2"
       id="ellipse1305"
       cy="28.4"
       cx="37.700001"
       transform="matrix(0.9673,-0.2535,0.2535,0.9673,-5.956,10.4713)" /><path
       id="path1307"
       d="m 37.9,27.9 c 0.1,0 0.2,-0.1 0.2,-0.2 v 0 c 0,-0.1 -0.2,-0.1 -0.3,-0.1 -0.1,0 -0.2,0.1 -0.2,0.2 v 0 c 0.1,0 0.2,0.1 0.3,0.1 z" /><circle
       r="0.2"
       id="ellipse1309"
       cy="26.5"
       cx="37.200001"
       transform="matrix(-0.3618,-0.9323,0.9323,-0.3618,26.0225,70.7252)" /><path
       id="path1311"
       d="m 37.2,25.7 c 0.1,-0.1 0.2,-0.2 0.2,-0.2 0,-0.1 -0.2,-0.1 -0.3,0 -0.1,0.1 -0.2,0.2 -0.2,0.2 0,0.1 0.2,0.1 0.3,0 z" /><path
       id="path1313"
       d="m 36.5,25 c -0.1,0.1 -0.2,0.2 -0.1,0.2 0,0 0.1,0 0.2,-0.1 0.1,-0.1 0.2,-0.2 0.1,-0.2 0,0 -0.1,0 -0.2,0.1 z" /><path
       id="path1315"
       d="m 36.2,25.6 c -0.1,0.1 -0.2,0.1 -0.2,0.2 0,0.1 0.1,0.1 0.3,0 0.1,-0.1 0.2,-0.2 0.2,-0.2 -0.1,-0.1 -0.2,-0.1 -0.3,0 z" /><path
       id="path1317"
       d="m 36.3,24.4 c 0.1,-0.1 0.1,-0.2 0.1,-0.3 -0.1,-0.1 -0.2,0 -0.3,0 -0.1,0.1 -0.1,0.2 -0.1,0.3 0.1,0.1 0.2,0.1 0.3,0 z" /><path
       id="path1319"
       d="m 35.5,23.5 c -0.1,0.1 -0.1,0.2 0,0.3 0.1,0.1 0.2,0 0.3,0 0.1,-0.1 0.1,-0.2 0.1,-0.3 -0.2,-0.1 -0.3,-0.1 -0.4,0 z" /><circle
       r="0.2"
       id="ellipse1321"
       cy="23.700001"
       cx="34.799999"
       transform="matrix(-0.7265,-0.6872,0.6872,-0.7265,43.8085,64.7884)" /><circle
       r="0.2"
       id="ellipse1323"
       cy="22.6"
       cx="33.799999"
       transform="matrix(-0.7621,-0.6475,0.6475,-0.7621,45.0056,61.6556)" /><circle
       r="0.2"
       id="ellipse1325"
       cy="21.9"
       cx="33.599998"
       transform="matrix(0.6333,-0.7739,0.7739,0.6333,-4.6122,34.0426)" /><circle
       r="0.2"
       id="ellipse1327"
       cy="21.1"
       cx="32.299999"
       transform="matrix(-0.7928,-0.6094,0.6094,-0.7928,44.9668,57.5149)" /><circle
       r="0.2"
       id="ellipse1329"
       cy="20.299999"
       cx="31.6"
       transform="matrix(-0.804,-0.5947,0.5947,-0.804,44.8491,55.3724)" /><circle
       r="0.2"
       id="ellipse1331"
       cy="19.700001"
       cx="30.4"
       transform="matrix(0.5728,-0.8197,0.8197,0.5728,-3.2057,33.3343)" /><circle
       r="0.2"
       id="ellipse1333"
       cy="20.6"
       cx="30.6"
       transform="matrix(-0.8148,-0.5798,0.5798,-0.8148,43.6154,55.1699)" /><circle
       r="0.2"
       id="ellipse1335"
       cy="18.9"
       cx="29.6"
       transform="matrix(-0.83,-0.5578,0.5578,-0.83,43.5855,51.113)" /><circle
       r="0.2"
       id="ellipse1337"
       cy="18.5"
       cx="27.9"
       transform="matrix(-0.8405,-0.5417,0.5417,-0.8405,41.2738,49.0752)" /><circle
       r="0.2"
       id="ellipse1339"
       cy="17.5"
       cx="26.6"
       transform="matrix(-0.8535,-0.521,0.521,-0.8535,40.2403,46.2288)" /><path
       id="path1341"
       d="m 49.7,42.1 c 0.1,-0.1 0.1,-0.2 0,-0.3 l -0.3,0.3 c 0.1,0.1 0.2,0.1 0.3,0 z" /><circle
       r="0.2"
       id="ellipse1343"
       cy="42.700001"
       cx="50.900002"
       transform="matrix(0.7788,0.6273,-0.6273,0.7788,38.0704,-22.4561)" /><path
       id="path1345"
       d="m 51.8,43.8 c 0.1,-0.1 0.1,-0.2 0,-0.3 -0.1,-0.1 -0.2,0 -0.3,0.1 -0.1,0.1 -0.1,0.2 0,0.3 0.1,0 0.2,0 0.3,-0.1 z" /><path
       id="path1347"
       d="m 52.8,44.6 c 0.1,0.1 0.2,0.1 0.3,0 0.1,-0.1 0.1,-0.2 0,-0.3 -0.1,-0.1 -0.2,-0.1 -0.3,0 -0.1,0.1 -0.1,0.2 0,0.3 z" /><path
       id="path1349"
       d="m 52.8,43.6 c 0.1,-0.1 0.1,-0.2 0,-0.3 -0.1,-0.1 -0.2,-0.1 -0.3,0 -0.1,0.1 -0.1,0.2 0,0.3 0.1,0.1 0.2,0.1 0.3,0 z" /><path
       id="path1351"
       d="m 54,45.8 c 0.1,-0.1 0.1,-0.2 0,-0.3 -0.1,-0.1 -0.3,-0.1 -0.3,0 -0.1,0.1 -0.1,0.2 0,0.3 0,0.1 0.2,0.1 0.3,0 z" /><circle
       r="0.2"
       id="ellipse1353"
       cy="46.700001"
       cx="54.700001"
       transform="matrix(0.6217,0.7832,-0.7832,0.6217,57.2958,-25.1924)" /><circle
       r="0.2"
       id="ellipse1355"
       cy="47"
       cx="55.599998"
       transform="matrix(0.5944,0.8041,-0.8041,0.5944,60.3397,-25.6979)" /><circle
       r="0.2"
       id="ellipse1357"
       cy="47.900002"
       cx="55.400002"
       transform="matrix(0.5849,0.8111,-0.8111,0.5849,61.8556,-25.0804)" /><circle
       r="0.2"
       id="ellipse1359"
       cy="48.5"
       cx="56.5"
       transform="matrix(0.568,0.823,-0.823,0.568,64.3756,-25.5595)" /><circle
       r="0.2"
       id="ellipse1361"
       cy="49.299999"
       cx="56.599998"
       transform="matrix(-0.5586,-0.8295,0.8295,-0.5586,47.313,123.8443)" /><circle
       r="0.2"
       id="ellipse1363"
       cy="50.700001"
       cx="57.799999"
       transform="matrix(0.5291,0.8485,-0.8485,0.5291,70.2363,-25.1551)" /><path
       id="path1365"
       d="m 58,52 c 0.1,0.1 0.2,0.1 0.3,0.1 0.1,-0.1 0.2,-0.2 0.1,-0.3 C 58.3,51.7 58.2,51.7 58.1,51.7 58,51.8 58,51.9 58,52 Z" /><path
       id="path1367"
       d="m 59.2,53.2 c 0.1,-0.1 0.2,-0.1 0.1,-0.2 -0.1,-0.1 -0.2,-0.2 -0.3,-0.1 -0.1,0.1 -0.2,0.2 -0.1,0.3 0.1,0.1 0.2,0.1 0.3,0 z" /><path
       id="path1369"
       d="m 59.4,52.3 c 0.1,-0.1 0.2,-0.2 0.1,-0.3 -0.1,-0.1 -0.2,-0.2 -0.3,-0.1 -0.1,0.1 -0.2,0.2 -0.1,0.3 0,0.1 0.2,0.1 0.3,0.1 z" /><path
       id="path1371"
       d="m 59.3,53.8 c -0.1,0.1 -0.2,0.2 -0.1,0.2 0,0.1 0.1,0.1 0.3,0 0.1,-0.1 0.2,-0.2 0.1,-0.2 -0.1,-0.1 -0.2,-0.1 -0.3,0 z" /><circle
       r="0.2"
       id="ellipse1373"
       cy="54.599998"
       cx="59.700001"
       transform="matrix(-0.7749,0.6321,-0.6321,-0.7749,140.5581,59.1339)" /><path
       id="path1375"
       d="m 60.7,54.7 c 0.1,-0.1 0.1,-0.2 0.1,-0.3 -0.1,-0.1 -0.2,0 -0.3,0 -0.1,0.1 -0.1,0.2 -0.1,0.3 0.1,0.1 0.2,0 0.3,0 z" /><circle
       r="0.2"
       id="ellipse1377"
       cy="55.400002"
       cx="60.400002"
       transform="matrix(0.695,0.719,-0.719,0.695,58.234,-26.5581)" /><path
       id="path1379"
       d="m 61.6,55.8 c 0.1,-0.1 0.1,-0.2 0,-0.3 -0.1,-0.1 -0.2,0 -0.3,0 -0.1,0.1 -0.1,0.2 0,0.3 0.1,0.1 0.2,0.1 0.3,0 z" /><path
       id="path1381"
       d="m 61.5,56.2 c -0.1,0.1 -0.1,0.2 0,0.3 v 0 c 0.1,0.1 0.2,0 0.3,-0.1 0.1,-0.1 0.1,-0.2 0,-0.3 v 0 c -0.1,0 -0.2,0 -0.3,0.1 z" /><circle
       r="0.2"
       id="ellipse1383"
       cy="57.200001"
       cx="62.900002"
       transform="matrix(0.7684,0.6399,-0.6399,0.7684,51.1479,-27.0168)" /><circle
       r="0.2"
       id="ellipse1385"
       cy="58"
       cx="63.599998"
       transform="matrix(0.7673,0.6413,-0.6413,0.7673,52.0001,-27.258)" /><circle
       r="0.2"
       id="ellipse1387"
       cy="58.599998"
       cx="64.699997"
       transform="matrix(-0.7906,-0.6123,0.6123,-0.7906,79.9573,144.5703)" /><circle
       r="0.2"
       id="ellipse1389"
       cy="57.700001"
       cx="64.5"
       transform="matrix(0.7911,0.6117,-0.6117,0.7911,48.7869,-27.3892)" /><circle
       r="0.2"
       id="ellipse1391"
       cy="59.5"
       cx="65.400002"
       transform="matrix(0.8082,0.5889,-0.5889,0.8082,47.5768,-27.128)" /><circle
       r="0.2"
       id="ellipse1393"
       cy="60.099998"
       cx="66.300003"
       transform="matrix(0.8079,0.5893,-0.5893,0.8079,48.1692,-27.533)" /><circle
       r="0.2"
       id="ellipse1395"
       cy="60"
       cx="67.099998"
       transform="matrix(0.8133,0.5819,-0.5819,0.8133,47.454,-27.861)" /><circle
       r="0.2"
       id="ellipse1397"
       cy="60.900002"
       cx="67.199997"
       transform="matrix(-0.8218,-0.5698,0.5698,-0.8218,87.6689,149.2383)" /><circle
       r="0.2"
       id="ellipse1399"
       cy="61.099998"
       cx="68.300003"
       transform="matrix(0.8215,0.5702,-0.5702,0.8215,47.0262,-28.0669)" /><circle
       r="0.2"
       id="ellipse1401"
       cy="61.799999"
       cx="68.599998"
       transform="matrix(-0.5593,0.829,-0.829,-0.5593,158.2319,39.3786)" /><circle
       r="0.2"
       id="ellipse1403"
       cy="62.400002"
       cx="70.099998"
       transform="matrix(0.8382,0.5453,-0.5453,0.8382,45.4024,-28.1394)" /><circle
       r="0.2"
       id="ellipse1405"
       cy="63.200001"
       cx="70.900002"
       transform="matrix(0.8414,0.5403,-0.5403,0.8414,45.4151,-28.2933)" /><circle
       r="0.2"
       id="ellipse1407"
       cy="63.700001"
       cx="72.199997"
       transform="matrix(-0.5292,0.8485,-0.8485,-0.5292,164.4154,36.2456)" /><circle
       r="0.2"
       id="ellipse1409"
       cy="62.900002"
       cx="71.800003"
       transform="matrix(0.8449,0.5349,-0.5349,0.8449,44.7756,-28.6791)" /><circle
       r="0.2"
       id="ellipse1411"
       cy="64.5"
       cx="73"
       transform="matrix(0.8553,0.5181,-0.5181,0.8553,44.004,-28.4857)" /><circle
       r="0.2"
       id="ellipse1413"
       cy="65.199997"
       cx="73.800003"
       transform="matrix(0.8568,0.5157,-0.5157,0.8568,44.2092,-28.7401)" /><circle
       r="0.2"
       id="ellipse1415"
       cy="64.900002"
       cx="74.800003"
       transform="matrix(0.8607,0.5092,-0.5092,0.8607,43.4827,-29.0233)" /><circle
       r="0.2"
       id="ellipse1417"
       cy="65.800003"
       cx="74.900002"
       transform="matrix(-0.8624,-0.5063,0.5063,-0.8624,106.1279,160.5235)" /><circle
       r="0.2"
       id="ellipse1419"
       cy="71.699997"
       cx="71.400002"
       transform="matrix(-0.8622,-0.5066,0.5066,-0.8622,96.6738,169.7306)" /><circle
       r="0.2"
       id="ellipse1421"
       cy="70.900002"
       cx="70.5"
       transform="matrix(-0.8581,-0.5135,0.5135,-0.8581,94.6605,168.0074)" /><circle
       r="0.2"
       id="ellipse1423"
       cy="70.400002"
       cx="69.199997"
       transform="matrix(0.5223,-0.8527,0.8527,0.5223,-26.966,92.6757)" /><circle
       r="0.2"
       id="ellipse1425"
       cy="71.300003"
       cx="69.599998"
       transform="matrix(-0.8553,-0.5182,0.5182,-0.8553,92.1855,168.3388)" /><circle
       r="0.2"
       id="ellipse1427"
       cy="69.599998"
       cx="68.300003"
       transform="matrix(-0.8489,-0.5285,0.5285,-0.8489,89.5786,164.741)" /><circle
       r="0.2"
       id="ellipse1429"
       cy="68.900002"
       cx="67.300003"
       transform="matrix(-0.8415,-0.5402,0.5402,-0.8415,86.7692,163.3405)" /><circle
       r="0.2"
       id="ellipse1431"
       cy="69.099998"
       cx="66.5"
       transform="matrix(-0.8415,-0.5403,0.5403,-0.8415,85.1151,163.1211)" /><circle
       r="0.2"
       id="ellipse1433"
       cy="68"
       cx="65.099998"
       transform="matrix(-0.8326,-0.5539,0.5539,-0.8326,81.7365,160.6351)" /><circle
       r="0.2"
       id="ellipse1435"
       cy="67.300003"
       cx="64.800003"
       transform="matrix(0.56,-0.8285,0.8285,0.56,-27.2247,83.2912)" /><circle
       r="0.2"
       id="ellipse1437"
       cy="66.5"
       cx="63.200001"
       transform="matrix(-0.8215,-0.5702,0.5702,-0.8215,77.2825,157.1623)" /><circle
       r="0.2"
       id="ellipse1439"
       cy="65.599998"
       cx="62.400002"
       transform="matrix(-0.8082,-0.589,0.589,-0.8082,74.2261,155.4013)" /><circle
       r="0.2"
       id="ellipse1441"
       cy="65"
       cx="61.099998"
       transform="rotate(-53.15875,61.141287,64.96985)" /><circle
       r="0.2"
       id="ellipse1443"
       cy="65.900002"
       cx="61.400002"
       transform="matrix(-0.8079,-0.5894,0.5894,-0.8079,72.2361,155.3367)" /><circle
       r="0.2"
       id="ellipse1445"
       cy="64"
       cx="60.299999"
       transform="matrix(-0.7905,-0.6125,0.6125,-0.7905,68.7577,151.5651)" /><circle
       r="0.2"
       id="ellipse1447"
       cy="63.299999"
       cx="58.5"
       transform="matrix(-0.7678,-0.6407,0.6407,-0.7678,62.8208,149.3323)" /><circle
       r="0.2"
       id="ellipse1449"
       cy="61.900002"
       cx="57.200001"
       transform="matrix(-0.7374,-0.6754,0.6754,-0.7374,57.5621,146.2625)" /><path
       id="path1451"
       d="m 57.1,61 v 0 c -0.1,-0.1 -0.2,-0.1 -0.3,0 -0.1,0.1 -0.1,0.2 0,0.3 v 0 c 0.1,0.1 0.2,0.1 0.3,0 0.1,-0.1 0.1,-0.2 0,-0.3 z" /><circle
       id="circle1453"
       r="0.2"
       cy="60"
       cx="55.400002" /><circle
       r="0.2"
       id="ellipse1455"
       cy="58.900002"
       cx="54.700001"
       transform="matrix(-0.63,-0.7766,0.7766,-0.63,43.4904,138.4249)" /><path
       id="path1457"
       d="m 53.6,57.9 c 0.1,-0.1 0.1,-0.2 0,-0.4 -0.1,-0.1 -0.2,-0.2 -0.3,-0.1 -0.1,0.1 -0.1,0.2 0,0.4 0.1,0.1 0.2,0.1 0.3,0.1 z" /><path
       id="path1459"
       d="m 53.5,58.6 c -0.1,0.1 -0.1,0.2 0,0.3 0.1,0.1 0.2,0.1 0.3,0.1 0.1,-0.1 0.1,-0.2 0,-0.3 -0.1,-0.2 -0.2,-0.2 -0.3,-0.1 z" /><path
       id="path1461"
       d="m 52.8,56 c -0.1,0.1 -0.2,0.2 -0.1,0.3 0,0.1 0.2,0.1 0.3,0.1 0.1,-0.1 0.2,-0.2 0.1,-0.3 C 53.1,56 52.9,56 52.8,56 Z" /><circle
       r="0.2"
       id="ellipse1463"
       cy="55.299999"
       cx="52.400002"
       transform="rotate(-120.1059,52.42776,55.314095)" /><circle
       r="0.2"
       id="ellipse1465"
       cy="55.099998"
       cx="51.599998"
       transform="matrix(-0.5178,-0.8555,0.8555,-0.5178,31.2366,127.8521)" /><circle
       r="0.2"
       id="ellipse1467"
       cy="53.700001"
       cx="51"
       transform="matrix(-0.5497,-0.8354,0.8354,-0.5497,34.1406,125.8652)" /><circle
       r="0.2"
       id="ellipse1469"
       cy="53"
       cx="51"
       transform="matrix(0.5596,0.8288,-0.8288,0.5596,66.3853,-18.8992)" /><circle
       r="0.2"
       id="ellipse1471"
       cy="51.900002"
       cx="49.900002"
       transform="matrix(-0.5853,-0.8108,0.8108,-0.5853,37.0335,122.676)" /><circle
       r="0.2"
       id="ellipse1473"
       cy="50.900002"
       cx="49.5"
       transform="matrix(0.7849,-0.6196,0.6196,0.7849,-20.922,41.6236)" /><circle
       r="0.2"
       id="ellipse1475"
       cy="50.299999"
       cx="48.700001"
       transform="matrix(-0.7028,-0.7114,0.7114,-0.7028,47.0335,120.3338)" /><ellipse
       id="ellipse1477"
       ry="0.2"
       rx="0.1"
       cy="51.099998"
       cx="48.599998"
       transform="matrix(-0.6656,-0.7463,0.7463,-0.6656,42.7825,121.4181)" /><path
       id="path1479"
       d="m 48,49.4 c -0.1,0.1 -0.1,0.2 0,0.3 0.1,0.1 0.2,0 0.3,-0.1 0.1,-0.1 0.1,-0.2 0,-0.3 -0.1,0 -0.2,0 -0.3,0.1 z" /><path
       id="path1481"
       d="m 46.4,48.8 c -0.1,0.1 -0.1,0.2 0,0.3 0.1,0.1 0.2,0 0.3,-0.1 0.1,-0.1 0.1,-0.2 0,-0.3 -0.1,0 -0.2,0 -0.3,0.1 z" /><circle
       id="circle1483"
       r="0.2"
       cy="47.700001"
       cx="45.299999" /><path
       id="path1485"
       d="M 45.1,46.7 44.8,47 c 0.1,0.1 0.2,0.1 0.3,0 0.1,-0.1 0.1,-0.2 0,-0.3 z" /></g></svg>
