<?xml version="1.0" encoding="UTF-8" standalone="no"?>
<svg
   xmlns:dc="http://purl.org/dc/elements/1.1/"
   xmlns:cc="http://creativecommons.org/ns#"
   xmlns:rdf="http://www.w3.org/1999/02/22-rdf-syntax-ns#"
   xmlns:svg="http://www.w3.org/2000/svg"
   xmlns="http://www.w3.org/2000/svg"
   id="svg3110"
   y="0px"
   x="0px"
   version="1.1"
   viewBox="0 0 12.7 15.875">
  <title
     id="title3118">RIDUTTORE</title>
  <metadata
     id="metadata3116">
    <rdf:RDF>
      <cc:Work
         rdf:about="">
        <dc:format>image/svg+xml</dc:format>
        <dc:type
           rdf:resource="http://purl.org/dc/dcmitype/StillImage" />
        <dc:title>RIDUTTORE</dc:title>
      </cc:Work>
    </rdf:RDF>
  </metadata>
  <defs
     id="defs3114" />
  <g
     id="g3104"
     transform="translate(0,-284.29998)">
    <path
       id="path3102"
       stroke-width="0.2645613"
       fill="#000000"
       d="m 6.4900355,284.82955 c -1.6843905,0 -3.0547469,1.36991 -3.0561492,3.05873 -2.65e-5,5.4e-4 0,10e-4 0,0.002 0,0.0365 0.02966,0.0661 0.066146,0.0661 l 2.9238575,-0.005 v 5.96758 l -0.029448,0.017 -4.1527151,-2.37298 c -0.02011,-0.0119 -0.04606,-0.0119 -0.06615,0 -0.02037,0.012 -0.03307,0.0338 -0.03307,0.0574 v 2.32596 H 0.57257571 c -0.03659,0 -0.06615,0.0296 -0.06615,0.0661 0,0.0365 0.02963,0.0662 0.06615,0.0662 H 2.1425067 v 2.32595 c 0,0.0236 0.0127,0.0449 0.03307,0.0568 0.02011,0.0116 0.04604,0.0116 0.06615,0 l 4.1527151,-2.3735 4.1532432,2.3735 c 0.01005,0.006 0.02117,0.009 0.03254,0.009 0.01138,0 0.02302,-0.003 0.03307,-0.009 0.02037,-0.012 0.0336,-0.0333 0.0336,-0.0568 v -2.32595 h 1.480529 c 0.03649,0 0.06615,-0.0297 0.06615,-0.0662 0,-0.0366 -0.02966,-0.0661 -0.06615,-0.0661 h -1.480529 v -2.32596 c 0,-0.0236 -0.01323,-0.0455 -0.0336,-0.0574 -0.02011,-0.0116 -0.04553,-0.0116 -0.06562,0 l -3.9915034,2.28048 v -5.88749 h 2.9212646 c 0,4e-5 0.00265,9.9e-4 0.00265,9.9e-4 0.036513,0 0.06641,-0.0296 0.066146,-0.0661 0,-2.7e-4 0,-8e-4 0,-9.9e-4 0,-0.81604 -0.3154627,-1.58382 -0.8914077,-2.16163 -0.5757333,-0.57759 -1.3422577,-0.89461 -2.1626777,-0.89813 0,-2e-5 0,-5.4e-4 -0.00265,-5.4e-4 z m 0.00265,0.13126 c 0,3e-5 0,0.001 0.00265,0.001 0.7812352,10e-4 1.5149513,0.30671 2.0660254,0.85989 0.5354109,0.5372 0.8357394,1.24625 0.8500798,2.00195 H 6.506175 c -0.00423,-7.9e-4 -0.00688,-0.005 -0.011377,-0.005 l -2.924863,0.005 c 0.033205,-1.58338 1.3297959,-2.86236 2.9212646,-2.86236 0,0 0,-0.001 0.00265,-0.001 z m 4.0214545,6.77323 v 4.55631 l -3.9863178,-2.2779 z m -8.2392833,5.3e-4 3.9863184,2.2779 -3.9863184,2.27841 z"
       style="" />
  </g>
</svg>
