<?xml version="1.0" encoding="UTF-8" standalone="no"?>
<svg
   xmlns:dc="http://purl.org/dc/elements/1.1/"
   xmlns:cc="http://creativecommons.org/ns#"
   xmlns:rdf="http://www.w3.org/1999/02/22-rdf-syntax-ns#"
   xmlns:svg="http://www.w3.org/2000/svg"
   xmlns="http://www.w3.org/2000/svg"
   xmlns:sodipodi="http://sodipodi.sourceforge.net/DTD/sodipodi-0.dtd"
   xmlns:inkscape="http://www.inkscape.org/namespaces/inkscape"
   inkscape:version="1.0 (4035a4fb49, 2020-05-01)"
   sodipodi:docname="SERBATOIO.svg"
   viewBox="0 0 100 125"
   x="0px"
   y="0px"
   version="1.1"
   id="svg1150">
  <sodipodi:namedview
     inkscape:current-layer="svg1150"
     inkscape:window-maximized="1"
     inkscape:window-y="-8"
     inkscape:window-x="-8"
     inkscape:cy="50.735294"
     inkscape:cx="50"
     inkscape:zoom="6.8"
     showgrid="false"
     id="namedview2687"
     inkscape:window-height="1018"
     inkscape:window-width="1920"
     inkscape:pageshadow="2"
     inkscape:pageopacity="0"
     guidetolerance="10"
     gridtolerance="10"
     objecttolerance="10"
     borderopacity="1"
     bordercolor="#666666"
     pagecolor="#ffffff" />
  <metadata
     id="metadata1156">
    <rdf:RDF>
      <cc:Work
         rdf:about="">
        <dc:format>image/svg+xml</dc:format>
        <dc:type
           rdf:resource="http://purl.org/dc/dcmitype/StillImage" />
        <dc:title>SERBATOIO</dc:title>
      </cc:Work>
    </rdf:RDF>
  </metadata>
  <defs
     id="defs1154" />
  <title
     id="title1124">SERBATOIO</title>
  <path
     d="m 88.3,0 a 1,1 0 0 0 -1,1 v 3.24 a 5.73,5.73 0 0 0 -3.9,2.3 c -0.84,0.93 -1.51,1.67 -2.88,1.67 -1.37,0 -2,-0.74 -2.88,-1.67 a 5.24,5.24 0 0 0 -8.72,0 c -0.84,0.93 -1.51,1.67 -2.87,1.67 -1.36,0 -2,-0.74 -2.87,-1.67 a 5.24,5.24 0 0 0 -8.72,0 c -0.84,0.93 -1.51,1.67 -2.87,1.67 -1.36,0 -2,-0.74 -2.87,-1.67 a 5.24,5.24 0 0 0 -8.71,0 c -0.84,0.93 -1.51,1.67 -2.87,1.67 -1.36,0 -2,-0.74 -2.87,-1.67 a 5.24,5.24 0 0 0 -8.71,0 c -0.84,0.93 -1.51,1.67 -2.87,1.67 -1.36,0 -2,-0.74 -2.87,-1.67 A 5.54,5.54 0 0 0 15.46,4.21 5.54,5.54 0 0 0 11.1,6.54 C 10.26,7.47 9.59,8.21 8.23,8.21 6.87,8.21 6.23,7.47 5.36,6.54 A 6,6 0 0 0 2,4.31 V 1 A 1,1 0 0 0 0,1 v 72.2 a 1,1 0 0 0 1,1 h 87.3 a 1,1 0 0 0 1,-1 V 1 a 1,1 0 0 0 -1,-1 z M 1.96,72.2 V 6.37 a 4.83,4.83 0 0 1 1.87,1.5 5.54,5.54 0 0 0 4.36,2.33 5.54,5.54 0 0 0 4.36,-2.33 c 0.84,-0.93 1.51,-1.67 2.87,-1.67 1.36,0 2,0.74 2.87,1.67 a 5.54,5.54 0 0 0 4.34,2.33 5.54,5.54 0 0 0 4.36,-2.33 C 27.83,6.94 28.5,6.2 29.86,6.2 c 1.36,0 2,0.74 2.87,1.67 a 5.24,5.24 0 0 0 8.71,0 c 0.84,-0.93 1.51,-1.67 2.87,-1.67 1.36,0 2,0.74 2.87,1.67 a 5.24,5.24 0 0 0 8.72,0 c 0.84,-0.93 1.51,-1.67 2.87,-1.67 1.36,0 2,0.74 2.88,1.67 a 5.24,5.24 0 0 0 8.72,0 c 0.84,-0.93 1.51,-1.67 2.88,-1.67 1.37,0 2,0.74 2.88,1.67 a 5.25,5.25 0 0 0 8.72,0 4,4 0 0 1 2.42,-1.64 v 66 z"
     id="path1126" />
  <path
     d="m 29.13,21.87 a 1,1 0 0 0 -1,-1 H 12.38 a 1,1 0 0 0 0,2 h 15.75 a 1,1 0 0 0 1,-1 z"
     id="path1128" />
  <path
     d="m 21.3,25.87 a 1,1 0 0 0 1,1 h 12.26 a 1,1 0 0 0 0,-2 H 22.3 a 1,1 0 0 0 -1,1 z"
     id="path1130" />
  <path
     d="m 15.88,28.87 a 1,1 0 0 0 0,2 h 8.75 a 1,1 0 0 0 0,-2 z"
     id="path1132" />
  <path
     d="M 80.8,38.03 H 62.63 a 1,1 0 0 0 0,2 H 80.8 a 1,1 0 0 0 0,-2 z"
     id="path1134" />
  <path
     d="m 72.71,43.03 a 1,1 0 0 0 -1,-1 H 58.05 a 1,1 0 0 0 0,2 h 13.66 a 1,1 0 0 0 1,-1 z"
     id="path1136" />
  <path
     d="m 77.13,46.03 h -6.5 a 1,1 0 0 0 0,2 h 6.5 a 1,1 0 0 0 0,-2 z"
     id="path1138" />
  <path
     d="M 40.92,55.47 H 23.26 a 1,1 0 0 0 0,2 h 17.66 a 1,1 0 0 0 0,-2 z"
     id="path1140" />
  <path
     d="M 32.05,59.47 H 15.29 a 1,1 0 0 0 0,2 h 16.76 a 1,1 0 0 0 0,-2 z"
     id="path1142" />
  <path
     d="m 28.71,63.47 h -5.25 a 1,1 0 1 0 0,2 h 5.25 a 1,1 0 0 0 0,-2 z"
     id="path1144" />
  <path
     style="fill:#1ec5ff;fill-opacity:0.666667;stroke:#1ec5ff;stroke-width:0.147059;stroke-opacity:0.666667"
     d="m 1.9829412,39.379412 c 0,-18.036765 0.041821,-32.794118 0.092936,-32.794118 0.2836904,0 1.1221013,0.694613 1.9310495,1.59985 1.3108863,1.46692 2.4204293,2.002543 4.1489253,2.002861 1.804507,3.38e-4 2.825292,-0.50376 4.433713,-2.189491 1.249171,-1.309213 1.920587,-1.707338 2.879334,-1.707338 0.854781,0 1.730727,0.526142 2.709573,1.627519 1.805285,2.031269 3.751024,2.730109 5.873366,2.109503 1.139266,-0.33314 1.984718,-0.920256 3.067711,-2.130345 1.030738,-1.151702 1.796204,-1.600217 2.731039,-1.600217 0.961144,0 1.688562,0.442432 2.859472,1.739195 1.507064,1.669047 2.480849,2.151404 4.343265,2.151404 1.888071,0 2.845653,-0.465862 4.324828,-2.104022 1.186868,-1.314437 1.970679,-1.793037 2.936488,-1.793037 0.904721,0 1.565324,0.410656 2.900255,1.802909 1.397014,1.457001 2.327654,1.982323 3.746533,2.11482 1.95112,0.182199 3.667578,-0.569215 4.9921,-2.18539 0.956956,-1.167673 1.652542,-1.62531 2.588342,-1.702913 1.130948,-0.09379 1.859154,0.314016 3.202044,1.793182 1.491803,1.643193 2.38287,2.074451 4.286236,2.074451 1.862414,0 2.83629,-0.482396 4.343318,-2.151404 1.155418,-1.279605 1.895582,-1.736983 2.819731,-1.742425 0.971537,-0.0057 1.632571,0.388067 2.927803,1.744134 1.479491,1.548979 2.375413,2.047558 3.910637,2.176266 0.823547,0.06904 1.252476,0.02042 2.11705,-0.239994 1.030098,-0.310269 1.150354,-0.394804 2.407781,-1.692566 1.198153,-1.236587 1.995035,-1.844011 2.419167,-1.844011 0.107316,0 0.154362,10.017265 0.154362,32.867647 V 72.173529 H 44.556471 1.9829412 Z M 29.389579,65.251091 c 0.506528,-0.398435 0.517727,-1.048917 0.02652,-1.540128 C 29.057025,63.351891 29.039797,63.35 26.127104,63.35 c -2.73953,0 -2.952973,0.01962 -3.315507,0.304791 -0.500571,0.393749 -0.532246,1.166528 -0.06563,1.601244 0.301848,0.281215 0.506223,0.299847 3.288991,0.299847 2.779104,0 2.9917,-0.01932 3.354623,-0.304791 z M 32.7833,61.289207 c 0.122369,-0.122407 0.264449,-0.432358 0.315732,-0.688781 0.0755,-0.377489 0.02142,-0.538051 -0.28415,-0.843619 l -0.377395,-0.377395 h -8.763369 -8.763369 l -0.360963,0.360963 c -0.555171,0.555171 -0.416364,1.416776 0.273651,1.698615 0.178716,0.073 4.185203,0.118254 9.029323,0.101998 7.552205,-0.02534 8.737584,-0.05876 8.93054,-0.251781 z m 8.970715,-4.1484 c 0.320045,-0.456929 0.285163,-0.991401 -0.09083,-1.391623 l -0.319753,-0.34036 h -9.20635 c -10.00484,0 -9.711413,-0.02391 -9.920313,0.80841 -0.09404,0.37467 0.109452,0.935062 0.413182,1.137867 0.089,0.05942 4.376806,0.109056 9.52847,0.110295 l 9.366661,0.0023 z m 36.136464,-9.328306 c 0.363855,-0.329283 0.350337,-1.145802 -0.02519,-1.521325 -0.278538,-0.278538 -0.490195,-0.294117 -3.995773,-0.294117 -4.155152,0 -4.239521,0.01998 -4.239521,1.00386 0,1.046838 0.03265,1.054963 4.239154,1.054963 3.28527,0 3.785871,-0.0303 4.021325,-0.243381 z m -5.499083,-3.956133 c 0.400688,-0.280653 0.447626,-1.158565 0.08346,-1.560965 -0.229636,-0.253746 -0.660998,-0.268932 -7.638719,-0.268932 H 57.440798 L 57.21187,42.35331 c -0.320046,0.45693 -0.285164,0.991402 0.09083,1.391624 l 0.319753,0.34036 h 7.221055 c 6.297609,0 7.262853,-0.02928 7.547895,-0.228926 z m 9.122639,-4.041509 c 0.468396,-0.436377 0.434943,-1.207493 -0.0696,-1.604368 -0.389331,-0.306248 -0.442731,-0.3077 -9.865984,-0.268026 l -9.474535,0.03989 -0.281074,0.347173 c -0.382206,0.472092 -0.353085,0.991243 0.07989,1.424217 l 0.360962,0.360963 h 9.464248 c 9.32125,0 9.469112,-0.0045 9.786097,-0.299847 z m -56.16397,-9.171475 c 0.403719,-0.365608 0.411501,-1.161818 0.01523,-1.55809 -0.282068,-0.282068 -0.490195,-0.294118 -5.080213,-0.294118 h -4.786097 l -0.360963,0.360964 c -0.555081,0.555081 -0.416613,1.415226 0.273651,1.699876 0.176698,0.07287 2.415519,0.118765 4.975157,0.101999 4.346103,-0.02847 4.674347,-0.04901 4.963235,-0.310631 z M 35.28104,26.64854 c 0.397622,-0.397622 0.446331,-0.931489 0.124339,-1.362812 l -0.292342,-0.39161 -6.63708,-0.03826 c -6.478566,-0.03735 -6.644139,-0.0312 -6.932695,0.257353 -0.353187,0.353187 -0.382613,0.988317 -0.06669,1.439363 l 0.228927,0.32684 h 6.672334 c 5.866972,0 6.7002,-0.02787 6.903205,-0.230872 z m -6.386334,-4.033834 c 0.163398,-0.163399 0.294118,-0.490196 0.294118,-0.735294 0,-0.245099 -0.13072,-0.571896 -0.294118,-0.735294 C 28.607487,20.856899 28.40451,20.85 20.241028,20.85 c -8.190663,0 -8.364974,0.006 -8.627451,0.296016 -0.14734,0.162808 -0.267891,0.492837 -0.267891,0.733396 0,0.240559 0.120551,0.570588 0.267891,0.733395 0.262477,0.290036 0.436788,0.296017 8.627451,0.296017 8.163482,0 8.366459,-0.0069 8.653678,-0.294118 z"
     id="path1158" />
</svg>
