<?xml version="1.0" encoding="UTF-8" standalone="no"?>
<svg
   xmlns:dc="http://purl.org/dc/elements/1.1/"
   xmlns:cc="http://creativecommons.org/ns#"
   xmlns:rdf="http://www.w3.org/1999/02/22-rdf-syntax-ns#"
   xmlns:svg="http://www.w3.org/2000/svg"
   xmlns="http://www.w3.org/2000/svg"
   id="svg1150"
   version="1.1"
   y="0px"
   x="0px"
   viewBox="0 0 100 125">
  <metadata
     id="metadata1156">
    <rdf:RDF>
      <cc:Work
         rdf:about="">
        <dc:format>image/svg+xml</dc:format>
        <dc:type
           rdf:resource="http://purl.org/dc/dcmitype/StillImage" />
        <dc:title>SERBATOIO</dc:title>
      </cc:Work>
    </rdf:RDF>
  </metadata>
  <defs
     id="defs1154" />
  <title
     id="title1124">SERBATOIO</title>
  <path
     id="path1126"
     d="M93.67,12.9a1,1,0,0,0-1,1v3.24a5.73,5.73,0,0,0-3.9,2.3c-.84.93-1.51,1.67-2.88,1.67s-2-.74-2.88-1.67a5.24,5.24,0,0,0-8.72,0c-.84.93-1.51,1.67-2.87,1.67s-2-.74-2.87-1.67a5.24,5.24,0,0,0-8.72,0c-.84.93-1.51,1.67-2.87,1.67s-2-.74-2.87-1.67a5.24,5.24,0,0,0-8.71,0c-.84.93-1.51,1.67-2.87,1.67s-2-.74-2.87-1.67a5.24,5.24,0,0,0-8.71,0c-.84.93-1.51,1.67-2.87,1.67s-2-.74-2.87-1.67a5.54,5.54,0,0,0-4.36-2.33,5.54,5.54,0,0,0-4.36,2.33c-.84.93-1.51,1.67-2.87,1.67s-2-.74-2.87-1.67a6,6,0,0,0-3.36-2.23V13.9a1,1,0,0,0-2,0V86.1a1,1,0,0,0,1,1H93.67a1,1,0,0,0,1-1V13.9A1,1,0,0,0,93.67,12.9ZM7.33,85.1V19.27a4.83,4.83,0,0,1,1.87,1.5,5.54,5.54,0,0,0,4.36,2.33,5.54,5.54,0,0,0,4.36-2.33c.84-.93,1.51-1.67,2.87-1.67s2,.74,2.87,1.67A5.54,5.54,0,0,0,28,23.1a5.54,5.54,0,0,0,4.36-2.33c.84-.93,1.51-1.67,2.87-1.67s2,.74,2.87,1.67a5.24,5.24,0,0,0,8.71,0c.84-.93,1.51-1.67,2.87-1.67s2,.74,2.87,1.67a5.24,5.24,0,0,0,8.72,0c.84-.93,1.51-1.67,2.87-1.67s2,.74,2.88,1.67a5.24,5.24,0,0,0,8.72,0c.84-.93,1.51-1.67,2.88-1.67s2,.74,2.88,1.67a5.25,5.25,0,0,0,8.72,0,4,4,0,0,1,2.42-1.64v66Z" />
  <path
     id="path1128"
     d="M34.5,34.77a1,1,0,0,0-1-1H17.75a1,1,0,0,0,0,2H33.5A1,1,0,0,0,34.5,34.77Z" />
  <path
     id="path1130"
     d="M26.67,38.77a1,1,0,0,0,1,1H39.93a1,1,0,0,0,0-2H27.67A1,1,0,0,0,26.67,38.77Z" />
  <path
     id="path1132"
     d="M21.25,41.77a1,1,0,0,0,0,2H30a1,1,0,0,0,0-2Z" />
  <path
     id="path1134"
     d="M86.17,50.93H68a1,1,0,0,0,0,2H86.17a1,1,0,0,0,0-2Z" />
  <path
     id="path1136"
     d="M78.08,55.93a1,1,0,0,0-1-1H63.42a1,1,0,0,0,0,2H77.08A1,1,0,0,0,78.08,55.93Z" />
  <path
     id="path1138"
     d="M82.5,58.93H76a1,1,0,0,0,0,2h6.5a1,1,0,0,0,0-2Z" />
  <path
     id="path1140"
     d="M46.29,68.37H28.63a1,1,0,0,0,0,2H46.29a1,1,0,0,0,0-2Z" />
  <path
     id="path1142"
     d="M37.42,72.37H20.66a1,1,0,0,0,0,2H37.42a1,1,0,0,0,0-2Z" />
  <path
     id="path1144"
     d="M34.08,76.37H28.83a1,1,0,1,0,0,2h5.25a1,1,0,0,0,0-2Z" />
  <path
     id="path1158"
     d="m 7.3529412,52.279412 c 0,-18.036765 0.041821,-32.794118 0.092936,-32.794118 0.2836904,0 1.1221013,0.694613 1.9310495,1.59985 1.3108863,1.46692 2.4204293,2.002543 4.1489253,2.002861 1.804507,3.38e-4 2.825292,-0.50376 4.433713,-2.189491 1.249171,-1.309213 1.920587,-1.707338 2.879334,-1.707338 0.854781,0 1.730727,0.526142 2.709573,1.627519 1.805285,2.031269 3.751024,2.730109 5.873366,2.109503 1.139266,-0.33314 1.984718,-0.920256 3.067711,-2.130345 1.030738,-1.151702 1.796204,-1.600217 2.731039,-1.600217 0.961144,0 1.688562,0.442432 2.859472,1.739195 1.507064,1.669047 2.480849,2.151404 4.343265,2.151404 1.888071,0 2.845653,-0.465862 4.324828,-2.104022 1.186868,-1.314437 1.970679,-1.793037 2.936488,-1.793037 0.904721,0 1.565324,0.410656 2.900255,1.802909 1.397014,1.457001 2.327654,1.982323 3.746533,2.11482 1.95112,0.182199 3.667578,-0.569215 4.9921,-2.18539 0.956956,-1.167673 1.652542,-1.62531 2.588342,-1.702913 1.130948,-0.09379 1.859154,0.314016 3.202044,1.793182 1.491803,1.643193 2.38287,2.074451 4.286236,2.074451 1.862414,0 2.83629,-0.482396 4.343318,-2.151404 1.155418,-1.279605 1.895582,-1.736983 2.819731,-1.742425 0.971537,-0.0057 1.632571,0.388067 2.927803,1.744134 1.479491,1.548979 2.375413,2.047558 3.910637,2.176266 0.823547,0.06904 1.252476,0.02042 2.11705,-0.239994 1.030098,-0.310269 1.150354,-0.394804 2.407781,-1.692566 1.198153,-1.236587 1.995035,-1.844011 2.419167,-1.844011 0.107316,0 0.154362,10.017265 0.154362,32.867647 V 85.073529 H 49.926471 7.3529412 Z M 34.759579,78.151091 c 0.506528,-0.398435 0.517727,-1.048917 0.02652,-1.540128 C 34.427025,76.251891 34.409797,76.25 31.497104,76.25 c -2.73953,0 -2.952973,0.01962 -3.315507,0.304791 -0.500571,0.393749 -0.532246,1.166528 -0.06563,1.601244 0.301848,0.281215 0.506223,0.299847 3.288991,0.299847 2.779104,0 2.9917,-0.01932 3.354623,-0.304791 z M 38.1533,74.189207 c 0.122369,-0.122407 0.264449,-0.432358 0.315732,-0.688781 0.0755,-0.377489 0.02142,-0.538051 -0.28415,-0.843619 l -0.377395,-0.377395 h -8.763369 -8.763369 l -0.360963,0.360963 c -0.555171,0.555171 -0.416364,1.416776 0.273651,1.698615 0.178716,0.073 4.185203,0.118254 9.029323,0.101998 7.552205,-0.02534 8.737584,-0.05876 8.93054,-0.251781 z m 8.970715,-4.1484 c 0.320045,-0.456929 0.285163,-0.991401 -0.09083,-1.391623 l -0.319753,-0.34036 h -9.20635 c -10.00484,0 -9.711413,-0.02391 -9.920313,0.80841 -0.09404,0.37467 0.109452,0.935062 0.413182,1.137867 0.089,0.05942 4.376806,0.109056 9.52847,0.110295 l 9.366661,0.0023 z m 36.136464,-9.328306 c 0.363855,-0.329283 0.350337,-1.145802 -0.02519,-1.521325 -0.278538,-0.278538 -0.490195,-0.294117 -3.995773,-0.294117 -4.155152,0 -4.239521,0.01998 -4.239521,1.00386 0,1.046838 0.03265,1.054963 4.239154,1.054963 3.28527,0 3.785871,-0.0303 4.021325,-0.243381 z m -5.499083,-3.956133 c 0.400688,-0.280653 0.447626,-1.158565 0.08346,-1.560965 -0.229636,-0.253746 -0.660998,-0.268932 -7.638719,-0.268932 H 62.810798 L 62.58187,55.25331 c -0.320046,0.45693 -0.285164,0.991402 0.09083,1.391624 l 0.319753,0.34036 h 7.221055 c 6.297609,0 7.262853,-0.02928 7.547895,-0.228926 z m 9.122639,-4.041509 c 0.468396,-0.436377 0.434943,-1.207493 -0.0696,-1.604368 -0.389331,-0.306248 -0.442731,-0.3077 -9.865984,-0.268026 l -9.474535,0.03989 -0.281074,0.347173 c -0.382206,0.472092 -0.353085,0.991243 0.07989,1.424217 l 0.360962,0.360963 h 9.464248 c 9.32125,0 9.469112,-0.0045 9.786097,-0.299847 z m -56.16397,-9.171475 c 0.403719,-0.365608 0.411501,-1.161818 0.01523,-1.55809 -0.282068,-0.282068 -0.490195,-0.294118 -5.080213,-0.294118 h -4.786097 l -0.360963,0.360964 c -0.555081,0.555081 -0.416613,1.415226 0.273651,1.699876 0.176698,0.07287 2.415519,0.118765 4.975157,0.101999 4.346103,-0.02847 4.674347,-0.04901 4.963235,-0.310631 z M 40.65104,39.54854 c 0.397622,-0.397622 0.446331,-0.931489 0.124339,-1.362812 l -0.292342,-0.39161 -6.63708,-0.03826 c -6.478566,-0.03735 -6.644139,-0.0312 -6.932695,0.257353 -0.353187,0.353187 -0.382613,0.988317 -0.06669,1.439363 l 0.228927,0.32684 h 6.672334 c 5.866972,0 6.7002,-0.02787 6.903205,-0.230872 z m -6.386334,-4.033834 c 0.163398,-0.163399 0.294118,-0.490196 0.294118,-0.735294 0,-0.245099 -0.13072,-0.571896 -0.294118,-0.735294 C 33.977487,33.756899 33.77451,33.75 25.611028,33.75 c -8.190663,0 -8.364974,0.006 -8.627451,0.296016 -0.14734,0.162808 -0.267891,0.492837 -0.267891,0.733396 0,0.240559 0.120551,0.570588 0.267891,0.733395 0.262477,0.290036 0.436788,0.296017 8.627451,0.296017 8.163482,0 8.366459,-0.0069 8.653678,-0.294118 z"
     style="fill:#1ec5ff;stroke:#ff0000;stroke-width:0.147059;fill-opacity:0.66666675" />
</svg>
