<?xml version="1.0" encoding="UTF-8" standalone="no"?>
<svg
   xmlns:dc="http://purl.org/dc/elements/1.1/"
   xmlns:cc="http://creativecommons.org/ns#"
   xmlns:rdf="http://www.w3.org/1999/02/22-rdf-syntax-ns#"
   xmlns:svg="http://www.w3.org/2000/svg"
   xmlns="http://www.w3.org/2000/svg"
   xmlns:sodipodi="http://sodipodi.sourceforge.net/DTD/sodipodi-0.dtd"
   xmlns:inkscape="http://www.inkscape.org/namespaces/inkscape"
   inkscape:version="1.0 (4035a4fb49, 2020-05-01)"
   sodipodi:docname="SORGENTE.svg"
   id="svg865"
   xml:space="preserve"
   enable-background="new 0 0 100 100"
   viewBox="0 0 100 125"
   y="0px"
   x="0px"
   version="1.1"><metadata
     id="metadata871"><rdf:RDF><cc:Work
         rdf:about=""><dc:format>image/svg+xml</dc:format><dc:type
           rdf:resource="http://purl.org/dc/dcmitype/StillImage" /><dc:title></dc:title></cc:Work></rdf:RDF></metadata><defs
     id="defs869" /><sodipodi:namedview
     inkscape:current-layer="svg865"
     inkscape:window-maximized="1"
     inkscape:window-y="-8"
     inkscape:window-x="-8"
     inkscape:cy="27.205882"
     inkscape:cx="50"
     inkscape:zoom="6.8"
     showgrid="false"
     id="namedview867"
     inkscape:window-height="1018"
     inkscape:window-width="1920"
     inkscape:pageshadow="2"
     inkscape:pageopacity="0"
     guidetolerance="10"
     gridtolerance="10"
     objecttolerance="10"
     borderopacity="1"
     bordercolor="#666666"
     pagecolor="#ffffff" /><g
     transform="translate(-5.644,-43.154)"
     id="g859"><path
       id="path853"
       d="m 84.492,47.459 c -2.706,0 -4.119,1.039 -5.364,1.954 -1.221,0.897 -2.275,1.672 -4.503,1.672 -2.225,0 -3.279,-0.775 -4.498,-1.671 -1.246,-0.916 -2.657,-1.955 -5.362,-1.955 -2.703,0 -4.113,1.039 -5.359,1.955 -1.217,0.897 -2.269,1.671 -4.493,1.671 -2.225,0 -3.277,-0.775 -4.497,-1.671 -1.244,-0.916 -2.656,-1.955 -5.36,-1.955 -2.701,0 -4.113,1.039 -5.357,1.954 -1.22,0.897 -2.272,1.672 -4.497,1.672 -2.224,0 -3.276,-0.774 -4.494,-1.671 -1.246,-0.916 -2.657,-1.955 -5.36,-1.955 -2.701,0 -4.113,1.039 -5.357,1.954 -1.22,0.897 -2.272,1.672 -4.497,1.672 -2.224,0 -3.276,-0.775 -4.493,-1.671 C 9.756,48.498 8.345,47.459 5.644,47.459 v 1.456 c 2.224,0 3.276,0.775 4.493,1.671 1.245,0.916 2.656,1.955 5.357,1.955 2.703,0 4.115,-1.039 5.36,-1.955 1.218,-0.897 2.271,-1.671 4.494,-1.671 2.225,0 3.277,0.775 4.497,1.671 1.244,0.916 2.656,1.955 5.357,1.955 2.703,0 4.115,-1.039 5.36,-1.955 1.218,-0.897 2.271,-1.671 4.494,-1.671 2.227,0 3.279,0.775 4.499,1.672 1.244,0.916 2.656,1.954 5.359,1.954 2.701,0 4.112,-1.039 5.356,-1.955 1.219,-0.897 2.272,-1.671 4.496,-1.671 2.227,0 3.28,0.775 4.5,1.672 1.245,0.916 2.657,1.954 5.36,1.954 2.706,0 4.119,-1.039 5.365,-1.954 1.221,-0.897 2.275,-1.672 4.503,-1.672 2.228,0 3.282,0.775 4.503,1.672 1.246,0.916 2.659,1.954 5.364,1.954 v -1.456 c -2.228,0 -3.282,-0.775 -4.503,-1.672 -1.248,-0.915 -2.661,-1.954 -5.366,-1.954 z" /><path
       id="path855"
       d="m 89.856,45.108 c -1.246,-0.916 -2.659,-1.954 -5.364,-1.954 -2.706,0 -4.119,1.039 -5.364,1.954 -1.221,0.897 -2.275,1.672 -4.503,1.672 -2.225,0 -3.279,-0.775 -4.498,-1.671 -1.246,-0.916 -2.657,-1.955 -5.362,-1.955 -2.703,0 -4.113,1.039 -5.359,1.955 -1.217,0.897 -2.269,1.671 -4.493,1.671 -2.225,0 -3.277,-0.775 -4.497,-1.671 -1.244,-0.916 -2.656,-1.955 -5.36,-1.955 -2.701,0 -4.113,1.039 -5.357,1.954 -1.22,0.897 -2.272,1.672 -4.497,1.672 -2.224,0 -3.276,-0.774 -4.494,-1.671 -1.246,-0.916 -2.657,-1.955 -5.36,-1.955 -2.701,0 -4.113,1.039 -5.357,1.954 -1.22,0.897 -2.272,1.672 -4.497,1.672 -2.224,0 -3.276,-0.775 -4.493,-1.671 C 9.756,44.193 8.345,43.154 5.644,43.154 v 1.456 c 2.224,0 3.276,0.775 4.493,1.671 1.245,0.916 2.656,1.955 5.357,1.955 2.703,0 4.115,-1.039 5.36,-1.955 1.218,-0.897 2.271,-1.671 4.494,-1.671 2.225,0 3.277,0.775 4.497,1.671 1.244,0.916 2.656,1.955 5.357,1.955 2.703,0 4.115,-1.039 5.36,-1.955 1.218,-0.897 2.271,-1.671 4.494,-1.671 2.227,0 3.279,0.775 4.499,1.672 1.244,0.916 2.656,1.954 5.359,1.954 2.701,0 4.112,-1.039 5.356,-1.955 1.219,-0.897 2.272,-1.671 4.496,-1.671 2.227,0 3.28,0.775 4.5,1.672 1.245,0.916 2.657,1.954 5.36,1.954 2.706,0 4.119,-1.039 5.365,-1.954 1.221,-0.897 2.275,-1.672 4.503,-1.672 2.228,0 3.282,0.775 4.503,1.672 1.246,0.916 2.659,1.954 5.364,1.954 V 46.78 c -2.23,0 -3.284,-0.774 -4.505,-1.672 z" /><path
       id="path857"
       d="m 84.492,51.764 c -2.706,0 -4.119,1.039 -5.364,1.954 -1.221,0.897 -2.275,1.672 -4.503,1.672 -2.225,0 -3.279,-0.775 -4.498,-1.671 -1.246,-0.916 -2.657,-1.955 -5.362,-1.955 -2.703,0 -4.113,1.039 -5.359,1.955 -1.217,0.897 -2.269,1.671 -4.493,1.671 -2.225,0 -3.277,-0.775 -4.497,-1.671 -1.244,-0.916 -2.656,-1.955 -5.36,-1.955 -2.701,0 -4.113,1.039 -5.357,1.954 -1.22,0.897 -2.272,1.672 -4.497,1.672 -2.224,0 -3.276,-0.774 -4.494,-1.671 -1.246,-0.916 -2.657,-1.955 -5.36,-1.955 -2.701,0 -4.113,1.039 -5.357,1.954 -1.22,0.897 -2.272,1.672 -4.497,1.672 -2.224,0 -3.276,-0.775 -4.493,-1.671 C 9.756,52.803 8.345,51.764 5.644,51.764 v 1.456 c 2.224,0 3.276,0.775 4.493,1.671 1.245,0.916 2.656,1.955 5.357,1.955 2.703,0 4.115,-1.039 5.36,-1.955 1.218,-0.897 2.271,-1.671 4.494,-1.671 2.225,0 3.277,0.775 4.497,1.671 1.244,0.916 2.656,1.955 5.357,1.955 2.703,0 4.115,-1.039 5.36,-1.955 1.218,-0.897 2.271,-1.671 4.494,-1.671 2.227,0 3.279,0.775 4.499,1.672 1.244,0.916 2.656,1.954 5.359,1.954 2.701,0 4.112,-1.039 5.356,-1.955 1.219,-0.897 2.272,-1.671 4.496,-1.671 2.227,0 3.28,0.775 4.5,1.672 1.245,0.916 2.657,1.954 5.36,1.954 2.706,0 4.119,-1.039 5.365,-1.954 1.221,-0.897 2.275,-1.672 4.503,-1.672 2.228,0 3.282,0.775 4.503,1.672 1.246,0.916 2.659,1.954 5.364,1.954 V 55.39 c -2.228,0 -3.282,-0.775 -4.503,-1.672 -1.248,-0.916 -2.661,-1.954 -5.366,-1.954 z" /></g></svg>
