<?xml version="1.0" encoding="UTF-8" standalone="no"?>
<svg
   xmlns:dc="http://purl.org/dc/elements/1.1/"
   xmlns:cc="http://creativecommons.org/ns#"
   xmlns:rdf="http://www.w3.org/1999/02/22-rdf-syntax-ns#"
   xmlns:svg="http://www.w3.org/2000/svg"
   xmlns="http://www.w3.org/2000/svg"
   xmlns:sodipodi="http://sodipodi.sourceforge.net/DTD/sodipodi-0.dtd"
   xmlns:inkscape="http://www.inkscape.org/namespaces/inkscape"
   inkscape:version="1.0 (4035a4fb49, 2020-05-01)"
   sodipodi:docname="VALVOLA_CHIUSA.svg"
   version="1.1"
   x="0px"
   y="0px"
   viewBox="0 0 100 125"
   enable-background="new 0 0 100 100"
   xml:space="preserve"
   id="svg1747"><sodipodi:namedview
     inkscape:current-layer="svg1747"
     inkscape:window-maximized="1"
     inkscape:window-y="-8"
     inkscape:window-x="-8"
     inkscape:cy="62.5"
     inkscape:cx="19.264706"
     inkscape:zoom="6.8"
     showgrid="false"
     id="namedview2328"
     inkscape:window-height="1018"
     inkscape:window-width="1920"
     inkscape:pageshadow="2"
     inkscape:pageopacity="0"
     guidetolerance="10"
     gridtolerance="10"
     objecttolerance="10"
     borderopacity="1"
     bordercolor="#666666"
     pagecolor="#ffffff" /><title
     id="title1755">VALVOLA_CHIUSA</title><metadata
     id="metadata1753"><rdf:RDF><cc:Work
         rdf:about=""><dc:format>image/svg+xml</dc:format><dc:type
           rdf:resource="http://purl.org/dc/dcmitype/StillImage" /><dc:title>VALVOLA_CHIUSA</dc:title></cc:Work></rdf:RDF></metadata><defs
     id="defs1751" /><g
     id="g1741"><path
       d="M75.085,34.38c-2.066-0.856-4.481-0.423-6.096,1.07L50,48.189L31.01,35.447c-1.616-1.495-4.043-1.927-6.108-1.06   c-2.116,0.9-3.483,2.968-3.483,5.268V60.34c0,2.299,1.367,4.366,3.495,5.271c0.712,0.296,1.46,0.446,2.223,0.446   c1.289,0,2.545-0.415,3.86-1.282l19.01-12.967L68.99,64.544c1.056,0.977,2.425,1.512,3.873,1.512c0.769,0,1.519-0.151,2.235-0.452   c2.116-0.9,3.483-2.968,3.483-5.268V39.652C78.582,37.353,77.214,35.286,75.085,34.38z M29.326,62.282   c-0.812,0.535-1.487,0.774-2.189,0.774c-0.366,0-0.727-0.073-1.061-0.211c-1.007-0.428-1.657-1.412-1.657-2.505V39.655   c0-1.095,0.65-2.079,1.651-2.505c0.34-0.143,0.7-0.215,1.067-0.215c0.711,0,1.381,0.271,1.887,0.763   c0.065,0.063,0.135,0.12,0.21,0.17l18.089,12.137L29.326,62.282z M75.582,60.336c0,1.095-0.65,2.079-1.651,2.505   c-0.998,0.42-2.187,0.199-2.955-0.548c-0.065-0.063-0.135-0.12-0.21-0.17L52.692,49.995l18.073-12.124   c0.075-0.05,0.146-0.107,0.21-0.17c0.77-0.749,1.965-0.962,2.948-0.555c1.007,0.429,1.658,1.412,1.658,2.505V60.336z"
       id="path1739" /></g><path
     id="path2330"
     d="M 26.272822,62.807693 C 25.584488,62.553144 25.09208,62.108716 24.787697,61.467278 24.586933,61.044199 24.558824,59.6388 24.558824,50.024113 c 0,-7.406793 0.05086,-11.095083 0.156854,-11.374834 0.223053,-0.588702 0.70673,-1.071951 1.387263,-1.386037 0.782485,-0.36114 1.354337,-0.346693 2.095284,0.05293 0.337418,0.181986 4.735631,3.103442 9.773808,6.492126 5.038176,3.388683 9.170671,6.168095 9.183323,6.17647 0.06796,0.04499 -17.75022,12.139822 -18.399727,12.489585 -0.937787,0.505006 -1.730713,0.611462 -2.482807,0.333336 z"
     style="fill:#000000;stroke:#000000;stroke-width:5.447;stroke-opacity:1;stroke-miterlimit:4;stroke-dasharray:none" /><path
     id="path2332"
     d="M 72.058824,62.823091 C 71.775735,62.717487 71.242726,62.40306 70.87436,62.124366 70.505993,61.845671 66.300027,59.003676 61.527768,55.808824 L 52.850934,50 62.020365,43.823529 c 5.043187,-3.397058 9.465007,-6.332764 9.826266,-6.52379 0.529598,-0.28004 0.782606,-0.32846 1.306094,-0.249958 0.734525,0.110149 1.453703,0.547372 1.907282,1.159532 0.305909,0.412861 0.30764,0.479101 0.30764,11.776154 v 11.360957 l -0.412013,0.540177 c -0.702368,0.920852 -1.900456,1.308173 -2.89681,0.93649 z"
     style="fill:#000000;stroke:#000000;stroke-width:0.647;stroke-opacity:1;stroke-miterlimit:4;stroke-dasharray:none" /></svg>
