<?xml version="1.0" encoding="UTF-8" standalone="no"?>
<svg
   xmlns:dc="http://purl.org/dc/elements/1.1/"
   xmlns:cc="http://creativecommons.org/ns#"
   xmlns:rdf="http://www.w3.org/1999/02/22-rdf-syntax-ns#"
   xmlns:svg="http://www.w3.org/2000/svg"
   xmlns="http://www.w3.org/2000/svg"
   id="svg1747"
   xml:space="preserve"
   enable-background="new 0 0 100 100"
   viewBox="0 0 100 125"
   y="0px"
   x="0px"
   version="1.1"><title
     id="title1755">VALVOLA</title><metadata
     id="metadata1753"><rdf:RDF><cc:Work
         rdf:about=""><dc:format>image/svg+xml</dc:format><dc:type
           rdf:resource="http://purl.org/dc/dcmitype/StillImage" /><dc:title>VALVOLA</dc:title></cc:Work></rdf:RDF></metadata><defs
     id="defs1751" /><g
     id="g1741"><path
       id="path1739"
       d="M75.085,34.38c-2.066-0.856-4.481-0.423-6.096,1.07L50,48.189L31.01,35.447c-1.616-1.495-4.043-1.927-6.108-1.06   c-2.116,0.9-3.483,2.968-3.483,5.268V60.34c0,2.299,1.367,4.366,3.495,5.271c0.712,0.296,1.46,0.446,2.223,0.446   c1.289,0,2.545-0.415,3.86-1.282l19.01-12.967L68.99,64.544c1.056,0.977,2.425,1.512,3.873,1.512c0.769,0,1.519-0.151,2.235-0.452   c2.116-0.9,3.483-2.968,3.483-5.268V39.652C78.582,37.353,77.214,35.286,75.085,34.38z M29.326,62.282   c-0.812,0.535-1.487,0.774-2.189,0.774c-0.366,0-0.727-0.073-1.061-0.211c-1.007-0.428-1.657-1.412-1.657-2.505V39.655   c0-1.095,0.65-2.079,1.651-2.505c0.34-0.143,0.7-0.215,1.067-0.215c0.711,0,1.381,0.271,1.887,0.763   c0.065,0.063,0.135,0.12,0.21,0.17l18.089,12.137L29.326,62.282z M75.582,60.336c0,1.095-0.65,2.079-1.651,2.505   c-0.998,0.42-2.187,0.199-2.955-0.548c-0.065-0.063-0.135-0.12-0.21-0.17L52.692,49.995l18.073-12.124   c0.075-0.05,0.146-0.107,0.21-0.17c0.77-0.749,1.965-0.962,2.948-0.555c1.007,0.429,1.658,1.412,1.658,2.505V60.336z" /></g></svg>
